<svg width="344" height="384" viewBox="0 0 344 384" fill="none" xmlns="http://www.w3.org/2000/svg">
<rect width="344" height="384" fill="white"/>
<path d="M90.998 53.4043H92.5889C92.665 54.0898 92.999 54.6406 93.5908 55.0566C94.1885 55.4727 94.9414 55.6807 95.8496 55.6807C96.7051 55.6807 97.4111 55.4785 97.9678 55.0742C98.5303 54.6641 98.8115 54.1484 98.8115 53.5273C98.8115 52.9941 98.6152 52.5547 98.2227 52.209C97.8359 51.8633 97.2148 51.5791 96.3594 51.3564L94.7334 50.9346C93.5615 50.6357 92.7061 50.2197 92.167 49.6865C91.6279 49.1475 91.3584 48.4473 91.3584 47.5859C91.3584 46.5312 91.7744 45.6699 92.6064 45.002C93.4443 44.334 94.5225 44 95.8408 44C97.1006 44 98.1436 44.3398 98.9697 45.0195C99.7959 45.6934 100.227 46.5605 100.262 47.6211H98.6797C98.6094 46.9414 98.3164 46.4053 97.8008 46.0127C97.2852 45.6201 96.6143 45.4238 95.7881 45.4238C94.9678 45.4238 94.2969 45.6172 93.7754 46.0039C93.2598 46.3906 93.002 46.8945 93.002 47.5156C93.002 47.9961 93.1895 48.3916 93.5645 48.7021C93.9453 49.0068 94.5664 49.2705 95.4277 49.4932L96.7549 49.8447C98.0674 50.1729 99.0107 50.6094 99.585 51.1543C100.159 51.6992 100.446 52.4258 100.446 53.334C100.446 54.4941 100.019 55.4141 99.1631 56.0938C98.3135 56.7676 97.1592 57.1045 95.7002 57.1045C94.3525 57.1045 93.251 56.7676 92.3955 56.0938C91.54 55.4199 91.0742 54.5234 90.998 53.4043Z" fill="#333333"/>
<path d="M105.72 48.9219C105.011 48.9219 104.422 49.168 103.953 49.6602C103.49 50.1465 103.235 50.7734 103.188 51.541H108.154C108.137 50.7676 107.905 50.1377 107.46 49.6514C107.015 49.165 106.435 48.9219 105.72 48.9219ZM108.119 54.2744H109.622C109.487 55.083 109.065 55.748 108.356 56.2695C107.653 56.791 106.807 57.0518 105.816 57.0518C104.51 57.0518 103.481 56.6299 102.731 55.7861C101.981 54.9424 101.606 53.7998 101.606 52.3584C101.606 50.9287 101.981 49.7773 102.731 48.9043C103.487 48.0312 104.492 47.5947 105.746 47.5947C106.977 47.5947 107.949 48.0078 108.664 48.834C109.379 49.6602 109.736 50.7676 109.736 52.1562V52.7363H103.18V52.8242C103.18 53.7031 103.42 54.4062 103.9 54.9336C104.381 55.4609 105.031 55.7246 105.852 55.7246C106.426 55.7246 106.915 55.5928 107.319 55.3291C107.724 55.0654 107.99 54.7139 108.119 54.2744Z" fill="#333333"/>
<path d="M111.775 45.5469H113.305V47.7529H115.08V49.0098H113.305V54.4414C113.305 54.8574 113.396 55.165 113.577 55.3643C113.759 55.5576 114.046 55.6543 114.438 55.6543C114.685 55.6543 114.896 55.6396 115.071 55.6104V56.8936C114.872 56.9404 114.55 56.9639 114.104 56.9639C113.267 56.9639 112.669 56.7764 112.312 56.4014C111.954 56.0264 111.775 55.3994 111.775 54.5205V49.0098H110.413V47.7529H111.775V45.5469Z" fill="#333333"/>
<path d="M121.162 60.3125C120.893 60.3125 120.673 60.2949 120.503 60.2598V58.9766C120.644 59.0059 120.843 59.0205 121.101 59.0205C121.528 59.0205 121.871 58.9062 122.129 58.6777C122.387 58.4551 122.604 58.0771 122.779 57.5439L122.99 56.9023L119.615 47.7529H121.25L123.781 55.3643H123.808L126.339 47.7529H127.947L124.353 57.5352C123.96 58.6016 123.535 59.3311 123.078 59.7236C122.627 60.1162 121.988 60.3125 121.162 60.3125Z" fill="#333333"/>
<path d="M132.685 57.0518C131.407 57.0518 130.382 56.627 129.608 55.7773C128.835 54.9219 128.448 53.7705 128.448 52.3232C128.448 50.876 128.835 49.7275 129.608 48.8779C130.382 48.0225 131.407 47.5947 132.685 47.5947C133.956 47.5947 134.979 48.0225 135.752 48.8779C136.525 49.7275 136.912 50.876 136.912 52.3232C136.912 53.7646 136.525 54.9131 135.752 55.7686C134.979 56.624 133.956 57.0518 132.685 57.0518ZM130.725 54.8105C131.211 55.4082 131.864 55.707 132.685 55.707C133.505 55.707 134.155 55.4111 134.636 54.8193C135.116 54.2217 135.356 53.3896 135.356 52.3232C135.356 51.2568 135.116 50.4277 134.636 49.8359C134.155 49.2383 133.505 48.9395 132.685 48.9395C131.864 48.9395 131.211 49.2383 130.725 49.8359C130.244 50.4336 130.004 51.2627 130.004 52.3232C130.004 53.3838 130.244 54.2129 130.725 54.8105Z" fill="#333333"/>
<path d="M145.965 47.7529V56.8936H144.515V55.4082H144.479C143.911 56.5039 142.944 57.0518 141.579 57.0518C140.589 57.0518 139.812 56.7529 139.25 56.1553C138.693 55.5518 138.415 54.7285 138.415 53.6855V47.7529H139.944V53.4131C139.944 54.9365 140.647 55.6982 142.054 55.6982C142.792 55.6982 143.372 55.4668 143.794 55.0039C144.222 54.5352 144.436 53.9082 144.436 53.123V47.7529H145.965Z" fill="#333333"/>
<path d="M147.951 56.8936V47.7529H149.393V49.2471H149.428C149.58 48.7373 149.853 48.3359 150.245 48.043C150.644 47.7441 151.109 47.5947 151.643 47.5947C151.766 47.5947 151.971 47.6152 152.258 47.6562V49.1416C152.094 49.083 151.821 49.0537 151.44 49.0537C150.849 49.0537 150.374 49.25 150.017 49.6426C149.659 50.0352 149.48 50.5537 149.48 51.1982V56.8936H147.951Z" fill="#333333"/>
<path d="M157.689 45.5469H159.219V47.7529H160.994V49.0098H159.219V54.4414C159.219 54.8574 159.31 55.165 159.491 55.3643C159.673 55.5576 159.96 55.6543 160.353 55.6543C160.599 55.6543 160.81 55.6396 160.985 55.6104V56.8936C160.786 56.9404 160.464 56.9639 160.019 56.9639C159.181 56.9639 158.583 56.7764 158.226 56.4014C157.868 56.0264 157.689 55.3994 157.689 54.5205V49.0098H156.327V47.7529H157.689V45.5469Z" fill="#333333"/>
<path d="M166.03 48.9219C165.321 48.9219 164.732 49.168 164.264 49.6602C163.801 50.1465 163.546 50.7734 163.499 51.541H168.465C168.447 50.7676 168.216 50.1377 167.771 49.6514C167.325 49.165 166.745 48.9219 166.03 48.9219ZM168.43 54.2744H169.933C169.798 55.083 169.376 55.748 168.667 56.2695C167.964 56.791 167.117 57.0518 166.127 57.0518C164.82 57.0518 163.792 56.6299 163.042 55.7861C162.292 54.9424 161.917 53.7998 161.917 52.3584C161.917 50.9287 162.292 49.7773 163.042 48.9043C163.798 48.0312 164.803 47.5947 166.057 47.5947C167.287 47.5947 168.26 48.0078 168.975 48.834C169.689 49.6602 170.047 50.7676 170.047 52.1562V52.7363H163.49V52.8242C163.49 53.7031 163.73 54.4062 164.211 54.9336C164.691 55.4609 165.342 55.7246 166.162 55.7246C166.736 55.7246 167.226 55.5928 167.63 55.3291C168.034 55.0654 168.301 54.7139 168.43 54.2744Z" fill="#333333"/>
<path d="M174.608 55.751C175.329 55.751 175.933 55.5283 176.419 55.083C176.911 54.6318 177.157 54.0781 177.157 53.4219V52.6748L174.714 52.8242C174.099 52.8652 173.621 53.0146 173.281 53.2725C172.947 53.5303 172.78 53.876 172.78 54.3096C172.78 54.7432 172.947 55.0918 173.281 55.3555C173.615 55.6191 174.058 55.751 174.608 55.751ZM174.266 57.0518C173.357 57.0518 172.622 56.7998 172.06 56.2959C171.503 55.792 171.225 55.1299 171.225 54.3096C171.225 53.5244 171.512 52.8975 172.086 52.4287C172.666 51.96 173.483 51.6963 174.538 51.6377L177.157 51.4883V50.7236C177.157 50.167 176.981 49.7305 176.63 49.4141C176.278 49.0977 175.786 48.9395 175.153 48.9395C174.573 48.9395 174.102 49.0684 173.738 49.3262C173.375 49.5781 173.144 49.9326 173.044 50.3896H171.567C171.62 49.5752 171.972 48.9072 172.622 48.3857C173.278 47.8584 174.134 47.5947 175.188 47.5947C176.261 47.5947 177.11 47.8643 177.737 48.4033C178.37 48.9424 178.687 49.666 178.687 50.5742V56.8936H177.236V55.3203H177.201C176.926 55.8418 176.521 56.2607 175.988 56.5771C175.455 56.8936 174.881 57.0518 174.266 57.0518Z" fill="#333333"/>
<path d="M180.629 56.8936V47.7529H182.07V49.2119H182.105C182.328 48.7139 182.665 48.3213 183.116 48.0342C183.567 47.7412 184.095 47.5947 184.698 47.5947C185.319 47.5947 185.853 47.7471 186.298 48.0518C186.743 48.3506 187.065 48.7783 187.265 49.335H187.3C187.552 48.79 187.93 48.3652 188.434 48.0605C188.943 47.75 189.521 47.5947 190.165 47.5947C191.067 47.5947 191.788 47.8672 192.327 48.4121C192.872 48.9512 193.145 49.6748 193.145 50.583V56.8936H191.615V50.9346C191.615 50.3076 191.448 49.8213 191.114 49.4756C190.786 49.124 190.32 48.9482 189.717 48.9482C189.113 48.9482 188.618 49.1504 188.231 49.5547C187.845 49.9531 187.651 50.4629 187.651 51.084V56.8936H186.122V50.7676C186.122 50.2168 185.952 49.7773 185.612 49.4492C185.272 49.1152 184.818 48.9482 184.25 48.9482C183.646 48.9482 183.146 49.1592 182.747 49.5811C182.354 50.0029 182.158 50.5303 182.158 51.1631V56.8936H180.629Z" fill="#333333"/>
<path d="M195.711 48.6846H194.437L195.289 44.2109H196.915L195.711 48.6846Z" fill="#333333"/>
<path d="M197.557 50.2754C197.557 49.4902 197.873 48.8486 198.506 48.3506C199.145 47.8467 199.965 47.5947 200.967 47.5947C201.91 47.5947 202.695 47.8467 203.322 48.3506C203.949 48.8545 204.28 49.4932 204.315 50.2666H202.856C202.804 49.8213 202.604 49.4727 202.259 49.2207C201.919 48.9688 201.471 48.8428 200.914 48.8428C200.357 48.8428 199.909 48.9688 199.569 49.2207C199.229 49.4668 199.06 49.792 199.06 50.1963C199.06 50.8174 199.566 51.2568 200.58 51.5146L201.995 51.8574C202.915 52.0918 203.562 52.3965 203.938 52.7715C204.318 53.1406 204.509 53.6621 204.509 54.3359C204.509 55.1328 204.169 55.7861 203.489 56.2959C202.81 56.7998 201.937 57.0518 200.87 57.0518C199.874 57.0518 199.051 56.8057 198.4 56.3135C197.756 55.8154 197.393 55.1592 197.311 54.3447H198.84C199.01 55.3174 199.719 55.8037 200.967 55.8037C201.582 55.8037 202.068 55.6836 202.426 55.4434C202.789 55.1973 202.971 54.8662 202.971 54.4502C202.971 54.1221 202.862 53.8613 202.646 53.668C202.435 53.4746 202.074 53.3105 201.564 53.1758L199.956 52.7627C198.356 52.3525 197.557 51.5234 197.557 50.2754Z" fill="#333333"/>
<path d="M211.109 45.7666C212.158 44.5889 213.582 44 215.381 44C217.18 44 218.604 44.5889 219.652 45.7666C220.701 46.9443 221.226 48.541 221.226 50.5566C221.226 52.5723 220.701 54.1689 219.652 55.3467C218.604 56.5186 217.18 57.1045 215.381 57.1045C213.582 57.1045 212.158 56.5186 211.109 55.3467C210.061 54.1689 209.536 52.5723 209.536 50.5566C209.536 48.541 210.061 46.9443 211.109 45.7666ZM218.457 46.8389C217.701 45.9189 216.676 45.459 215.381 45.459C214.086 45.459 213.058 45.9189 212.296 46.8389C211.54 47.7529 211.162 48.9922 211.162 50.5566C211.162 52.1152 211.54 53.3545 212.296 54.2744C213.058 55.1885 214.086 55.6455 215.381 55.6455C216.676 55.6455 217.701 55.1885 218.457 54.2744C219.219 53.3545 219.6 52.1152 219.6 50.5566C219.6 48.9922 219.219 47.7529 218.457 46.8389Z" fill="#333333"/>
<path d="M224.776 56.8936H223.194V44.2109H224.776V50.3984H224.864L230.463 44.2109H232.458L227.246 49.8271L232.924 56.8936H230.902L226.147 50.9521L224.776 52.4639V56.8936Z" fill="#333333"/>
<path d="M235.851 45.6172V50.4775H238.883C239.697 50.4775 240.324 50.2666 240.764 49.8447C241.209 49.4229 241.432 48.8223 241.432 48.043C241.432 47.2812 241.2 46.6865 240.737 46.2588C240.274 45.8311 239.633 45.6172 238.812 45.6172H235.851ZM235.851 51.875V56.8936H234.269V44.2109H239.023C240.248 44.2109 241.227 44.5566 241.959 45.248C242.697 45.9336 243.066 46.8477 243.066 47.9902C243.066 48.875 242.841 49.6396 242.39 50.2842C241.938 50.9287 241.314 51.377 240.518 51.6289L243.453 56.8936H241.599L238.883 51.875H235.851Z" fill="#333333"/>
<path d="M246.23 48.6846H244.956L245.809 44.2109H247.435L246.23 48.6846Z" fill="#333333"/>
<path d="M248.076 50.2754C248.076 49.4902 248.393 48.8486 249.025 48.3506C249.664 47.8467 250.484 47.5947 251.486 47.5947C252.43 47.5947 253.215 47.8467 253.842 48.3506C254.469 48.8545 254.8 49.4932 254.835 50.2666H253.376C253.323 49.8213 253.124 49.4727 252.778 49.2207C252.438 48.9688 251.99 48.8428 251.434 48.8428C250.877 48.8428 250.429 48.9688 250.089 49.2207C249.749 49.4668 249.579 49.792 249.579 50.1963C249.579 50.8174 250.086 51.2568 251.1 51.5146L252.515 51.8574C253.435 52.0918 254.082 52.3965 254.457 52.7715C254.838 53.1406 255.028 53.6621 255.028 54.3359C255.028 55.1328 254.688 55.7861 254.009 56.2959C253.329 56.7998 252.456 57.0518 251.39 57.0518C250.394 57.0518 249.57 56.8057 248.92 56.3135C248.275 55.8154 247.912 55.1592 247.83 54.3447H249.359C249.529 55.3174 250.238 55.8037 251.486 55.8037C252.102 55.8037 252.588 55.6836 252.945 55.4434C253.309 55.1973 253.49 54.8662 253.49 54.4502C253.49 54.1221 253.382 53.8613 253.165 53.668C252.954 53.4746 252.594 53.3105 252.084 53.1758L250.476 52.7627C248.876 52.3525 248.076 51.5234 248.076 50.2754Z" fill="#333333"/>
<path d="M67.1875 291.894H65.957V282.029H71.9453V283.137H67.1875V286.527H71.5557V287.621H67.1875V291.894Z" fill="#333333"/>
<path d="M75.8418 292.017C74.8483 292.017 74.0508 291.686 73.4492 291.025C72.8477 290.36 72.5469 289.465 72.5469 288.339C72.5469 287.213 72.8477 286.32 73.4492 285.659C74.0508 284.994 74.8483 284.661 75.8418 284.661C76.8307 284.661 77.626 284.994 78.2275 285.659C78.8291 286.32 79.1299 287.213 79.1299 288.339C79.1299 289.46 78.8291 290.353 78.2275 291.019C77.626 291.684 76.8307 292.017 75.8418 292.017ZM74.3174 290.273C74.6956 290.738 75.2038 290.971 75.8418 290.971C76.4798 290.971 76.9857 290.741 77.3594 290.28C77.7331 289.815 77.9199 289.168 77.9199 288.339C77.9199 287.509 77.7331 286.865 77.3594 286.404C76.9857 285.939 76.4798 285.707 75.8418 285.707C75.2038 285.707 74.6956 285.939 74.3174 286.404C73.9437 286.869 73.7568 287.514 73.7568 288.339C73.7568 289.164 73.9437 289.809 74.3174 290.273Z" fill="#333333"/>
<path d="M86.2393 287.115H85.0771C84.986 286.705 84.7832 286.368 84.4688 286.104C84.1589 285.839 83.7555 285.707 83.2588 285.707C82.639 285.707 82.14 285.946 81.7617 286.425C81.3835 286.899 81.1943 287.537 81.1943 288.339C81.1943 289.155 81.3835 289.797 81.7617 290.267C82.1445 290.736 82.6481 290.971 83.2725 290.971C83.751 290.971 84.1452 290.852 84.4551 290.615C84.7695 290.374 84.9792 290.036 85.084 289.604H86.2529C86.1618 290.314 85.8405 290.896 85.2891 291.347C84.7422 291.793 84.0677 292.017 83.2656 292.017C82.2721 292.017 81.4769 291.688 80.8799 291.032C80.2829 290.371 79.9844 289.474 79.9844 288.339C79.9844 287.222 80.2829 286.331 80.8799 285.666C81.4769 284.996 82.2676 284.661 83.252 284.661C84.0996 284.661 84.7878 284.9 85.3164 285.379C85.8496 285.857 86.1572 286.436 86.2393 287.115Z" fill="#333333"/>
<path d="M93.1846 284.784V291.894H92.0566V290.738H92.0293C91.5872 291.59 90.8353 292.017 89.7734 292.017C89.0033 292.017 88.3994 291.784 87.9619 291.319C87.529 290.85 87.3125 290.21 87.3125 289.398V284.784H88.502V289.187C88.502 290.371 89.0488 290.964 90.1426 290.964C90.7168 290.964 91.168 290.784 91.4961 290.424C91.8288 290.059 91.9951 289.572 91.9951 288.961V284.784H93.1846Z" fill="#333333"/>
<path d="M94.6064 286.746C94.6064 286.135 94.8525 285.636 95.3447 285.249C95.8415 284.857 96.4795 284.661 97.2588 284.661C97.9925 284.661 98.6032 284.857 99.0908 285.249C99.5785 285.641 99.8359 286.138 99.8633 286.739H98.7285C98.6875 286.393 98.5326 286.122 98.2637 285.926C97.9993 285.73 97.6507 285.632 97.2178 285.632C96.7848 285.632 96.4362 285.73 96.1719 285.926C95.9076 286.117 95.7754 286.37 95.7754 286.685C95.7754 287.168 96.1696 287.509 96.958 287.71L98.0586 287.977C98.7741 288.159 99.2777 288.396 99.5693 288.688C99.8656 288.975 100.014 289.38 100.014 289.904C100.014 290.524 99.7493 291.032 99.2207 291.429C98.6921 291.821 98.013 292.017 97.1836 292.017C96.4089 292.017 95.7686 291.825 95.2627 291.442C94.7614 291.055 94.4788 290.545 94.415 289.911H95.6045C95.7367 290.668 96.2881 291.046 97.2588 291.046C97.7373 291.046 98.1156 290.952 98.3936 290.766C98.6761 290.574 98.8174 290.317 98.8174 289.993C98.8174 289.738 98.7331 289.535 98.5645 289.385C98.4004 289.234 98.1201 289.107 97.7236 289.002L96.4727 288.681C95.2285 288.362 94.6064 287.717 94.6064 286.746Z" fill="#333333"/>
<path d="M107.068 292.017C106.075 292.017 105.277 291.686 104.676 291.025C104.074 290.36 103.773 289.465 103.773 288.339C103.773 287.213 104.074 286.32 104.676 285.659C105.277 284.994 106.075 284.661 107.068 284.661C108.057 284.661 108.853 284.994 109.454 285.659C110.056 286.32 110.356 287.213 110.356 288.339C110.356 289.46 110.056 290.353 109.454 291.019C108.853 291.684 108.057 292.017 107.068 292.017ZM105.544 290.273C105.922 290.738 106.43 290.971 107.068 290.971C107.706 290.971 108.212 290.741 108.586 290.28C108.96 289.815 109.146 289.168 109.146 288.339C109.146 287.509 108.96 286.865 108.586 286.404C108.212 285.939 107.706 285.707 107.068 285.707C106.43 285.707 105.922 285.939 105.544 286.404C105.17 286.869 104.983 287.514 104.983 288.339C104.983 289.164 105.17 289.809 105.544 290.273Z" fill="#333333"/>
<path d="M111.56 291.894V284.784H112.681V285.919H112.708C112.913 285.522 113.207 285.215 113.59 284.996C113.973 284.773 114.431 284.661 114.964 284.661C115.739 284.661 116.342 284.896 116.775 285.365C117.208 285.83 117.425 286.468 117.425 287.279V291.894H116.235V287.491C116.235 286.912 116.099 286.473 115.825 286.172C115.552 285.867 115.144 285.714 114.602 285.714C114.041 285.714 113.592 285.896 113.255 286.261C112.918 286.625 112.749 287.108 112.749 287.71V291.894H111.56Z" fill="#333333"/>
<path d="M122.196 283.068H123.386V284.784H124.767V285.762H123.386V289.986C123.386 290.31 123.456 290.549 123.598 290.704C123.739 290.854 123.962 290.93 124.268 290.93C124.459 290.93 124.623 290.918 124.76 290.896V291.894C124.605 291.93 124.354 291.948 124.008 291.948C123.356 291.948 122.891 291.802 122.613 291.511C122.335 291.219 122.196 290.731 122.196 290.048V285.762H121.137V284.784H122.196V283.068Z" fill="#333333"/>
<path d="M126.1 291.894V282.029H127.289V285.919H127.316C127.517 285.518 127.809 285.208 128.191 284.989C128.579 284.771 129.039 284.661 129.572 284.661C130.347 284.661 130.958 284.9 131.404 285.379C131.851 285.857 132.074 286.498 132.074 287.3V291.894H130.885V287.519C130.885 286.944 130.741 286.5 130.454 286.186C130.172 285.871 129.755 285.714 129.203 285.714C128.615 285.714 128.148 285.898 127.802 286.268C127.46 286.637 127.289 287.131 127.289 287.751V291.894H126.1Z" fill="#333333"/>
<path d="M136.436 285.693C135.884 285.693 135.426 285.885 135.062 286.268C134.701 286.646 134.503 287.133 134.467 287.73H138.329C138.315 287.129 138.135 286.639 137.789 286.261C137.443 285.882 136.992 285.693 136.436 285.693ZM138.302 289.856H139.471C139.366 290.485 139.038 291.003 138.486 291.408C137.939 291.814 137.281 292.017 136.511 292.017C135.494 292.017 134.695 291.688 134.111 291.032C133.528 290.376 133.236 289.487 133.236 288.366C133.236 287.254 133.528 286.359 134.111 285.68C134.699 285.001 135.481 284.661 136.456 284.661C137.413 284.661 138.17 284.982 138.726 285.625C139.282 286.268 139.56 287.129 139.56 288.209V288.66H134.46V288.729C134.46 289.412 134.647 289.959 135.021 290.369C135.394 290.779 135.9 290.984 136.538 290.984C136.985 290.984 137.365 290.882 137.68 290.677C137.994 290.472 138.201 290.198 138.302 289.856Z" fill="#333333"/>
<path d="M144.017 283.068H145.206V284.784H146.587V285.762H145.206V289.986C145.206 290.31 145.277 290.549 145.418 290.704C145.559 290.854 145.783 290.93 146.088 290.93C146.279 290.93 146.443 290.918 146.58 290.896V291.894C146.425 291.93 146.174 291.948 145.828 291.948C145.176 291.948 144.712 291.802 144.434 291.511C144.156 291.219 144.017 290.731 144.017 290.048V285.762H142.957V284.784H144.017V283.068Z" fill="#333333"/>
<path d="M147.92 291.894V282.029H149.109V285.919H149.137C149.337 285.518 149.629 285.208 150.012 284.989C150.399 284.771 150.859 284.661 151.393 284.661C152.167 284.661 152.778 284.9 153.225 285.379C153.671 285.857 153.895 286.498 153.895 287.3V291.894H152.705V287.519C152.705 286.944 152.562 286.5 152.274 286.186C151.992 285.871 151.575 285.714 151.023 285.714C150.436 285.714 149.968 285.898 149.622 286.268C149.28 286.637 149.109 287.131 149.109 287.751V291.894H147.92Z" fill="#333333"/>
<path d="M155.467 291.894V284.784H156.656V291.894H155.467ZM156.062 283.588C155.861 283.588 155.688 283.515 155.542 283.369C155.396 283.223 155.323 283.05 155.323 282.85C155.323 282.645 155.396 282.471 155.542 282.33C155.688 282.184 155.861 282.111 156.062 282.111C156.267 282.111 156.442 282.184 156.588 282.33C156.734 282.471 156.807 282.645 156.807 282.85C156.807 283.05 156.734 283.223 156.588 283.369C156.442 283.515 156.267 283.588 156.062 283.588Z" fill="#333333"/>
<path d="M158.263 291.894V284.784H159.384V285.919H159.411C159.616 285.522 159.91 285.215 160.293 284.996C160.676 284.773 161.134 284.661 161.667 284.661C162.442 284.661 163.046 284.896 163.479 285.365C163.911 285.83 164.128 286.468 164.128 287.279V291.894H162.938V287.491C162.938 286.912 162.802 286.473 162.528 286.172C162.255 285.867 161.847 285.714 161.305 285.714C160.744 285.714 160.295 285.896 159.958 286.261C159.621 286.625 159.452 287.108 159.452 287.71V291.894H158.263Z" fill="#333333"/>
<path d="M168.537 290.902C169.157 290.902 169.656 290.665 170.034 290.191C170.412 289.717 170.602 289.091 170.602 288.312C170.602 287.528 170.412 286.899 170.034 286.425C169.656 285.946 169.157 285.707 168.537 285.707C167.922 285.707 167.43 285.944 167.061 286.418C166.696 286.887 166.514 287.519 166.514 288.312C166.514 289.104 166.696 289.736 167.061 290.205C167.43 290.67 167.922 290.902 168.537 290.902ZM168.578 294.573C167.799 294.573 167.129 294.375 166.568 293.979C166.008 293.587 165.677 293.088 165.577 292.481H166.801C166.919 292.81 167.143 293.072 167.471 293.268C167.799 293.464 168.184 293.562 168.626 293.562C169.237 293.562 169.717 293.4 170.068 293.076C170.424 292.753 170.602 292.324 170.602 291.791V290.67H170.574C170.351 291.062 170.039 291.374 169.638 291.606C169.237 291.834 168.79 291.948 168.298 291.948C167.391 291.948 166.664 291.618 166.117 290.957C165.57 290.296 165.297 289.414 165.297 288.312C165.297 287.2 165.57 286.313 166.117 285.652C166.669 284.992 167.405 284.661 168.325 284.661C168.826 284.661 169.278 284.777 169.679 285.01C170.08 285.242 170.399 285.566 170.636 285.98H170.656V284.784H171.791V291.75C171.791 292.602 171.499 293.286 170.916 293.801C170.333 294.316 169.553 294.573 168.578 294.573Z" fill="#333333"/>
<path d="M173.22 286.746C173.22 286.135 173.466 285.636 173.958 285.249C174.455 284.857 175.093 284.661 175.872 284.661C176.606 284.661 177.216 284.857 177.704 285.249C178.192 285.641 178.449 286.138 178.477 286.739H177.342C177.301 286.393 177.146 286.122 176.877 285.926C176.613 285.73 176.264 285.632 175.831 285.632C175.398 285.632 175.049 285.73 174.785 285.926C174.521 286.117 174.389 286.37 174.389 286.685C174.389 287.168 174.783 287.509 175.571 287.71L176.672 287.977C177.387 288.159 177.891 288.396 178.183 288.688C178.479 288.975 178.627 289.38 178.627 289.904C178.627 290.524 178.363 291.032 177.834 291.429C177.305 291.821 176.626 292.017 175.797 292.017C175.022 292.017 174.382 291.825 173.876 291.442C173.375 291.055 173.092 290.545 173.028 289.911H174.218C174.35 290.668 174.901 291.046 175.872 291.046C176.351 291.046 176.729 290.952 177.007 290.766C177.289 290.574 177.431 290.317 177.431 289.993C177.431 289.738 177.346 289.535 177.178 289.385C177.014 289.234 176.733 289.107 176.337 289.002L175.086 288.681C173.842 288.362 173.22 287.717 173.22 286.746Z" fill="#333333"/>
<path d="M183.118 283.068H184.308V284.784H185.688V285.762H184.308V289.986C184.308 290.31 184.378 290.549 184.52 290.704C184.661 290.854 184.884 290.93 185.189 290.93C185.381 290.93 185.545 290.918 185.682 290.896V291.894C185.527 291.93 185.276 291.948 184.93 291.948C184.278 291.948 183.813 291.802 183.535 291.511C183.257 291.219 183.118 290.731 183.118 290.048V285.762H182.059V284.784H183.118V283.068Z" fill="#333333"/>
<path d="M187.021 291.894V282.029H188.211V285.919H188.238C188.439 285.518 188.73 285.208 189.113 284.989C189.501 284.771 189.961 284.661 190.494 284.661C191.269 284.661 191.88 284.9 192.326 285.379C192.773 285.857 192.996 286.498 192.996 287.3V291.894H191.807V287.519C191.807 286.944 191.663 286.5 191.376 286.186C191.093 285.871 190.676 285.714 190.125 285.714C189.537 285.714 189.07 285.898 188.724 286.268C188.382 286.637 188.211 287.131 188.211 287.751V291.894H187.021Z" fill="#333333"/>
<path d="M196.852 291.005C197.412 291.005 197.882 290.832 198.26 290.485C198.643 290.134 198.834 289.704 198.834 289.193V288.612L196.934 288.729C196.455 288.76 196.084 288.877 195.819 289.077C195.56 289.278 195.43 289.547 195.43 289.884C195.43 290.221 195.56 290.492 195.819 290.697C196.079 290.902 196.423 291.005 196.852 291.005ZM196.585 292.017C195.879 292.017 195.307 291.821 194.869 291.429C194.436 291.037 194.22 290.522 194.22 289.884C194.22 289.273 194.443 288.785 194.89 288.421C195.341 288.056 195.977 287.851 196.797 287.806L198.834 287.689V287.095C198.834 286.662 198.697 286.322 198.424 286.076C198.15 285.83 197.768 285.707 197.275 285.707C196.824 285.707 196.457 285.807 196.175 286.008C195.892 286.204 195.712 286.479 195.635 286.835H194.486C194.527 286.201 194.801 285.682 195.307 285.276C195.817 284.866 196.482 284.661 197.303 284.661C198.137 284.661 198.798 284.871 199.285 285.29C199.777 285.709 200.023 286.272 200.023 286.979V291.894H198.896V290.67H198.868C198.654 291.076 198.34 291.401 197.925 291.647C197.51 291.894 197.063 292.017 196.585 292.017Z" fill="#333333"/>
<path d="M201.917 283.068H203.106V284.784H204.487V285.762H203.106V289.986C203.106 290.31 203.177 290.549 203.318 290.704C203.46 290.854 203.683 290.93 203.988 290.93C204.18 290.93 204.344 290.918 204.48 290.896V291.894C204.326 291.93 204.075 291.948 203.729 291.948C203.077 291.948 202.612 291.802 202.334 291.511C202.056 291.219 201.917 290.731 201.917 290.048V285.762H200.857V284.784H201.917V283.068Z" fill="#333333"/>
<path d="M208.63 291.894V284.784H209.751V285.919H209.778C209.951 285.532 210.214 285.226 210.564 285.003C210.915 284.775 211.326 284.661 211.795 284.661C212.278 284.661 212.693 284.78 213.039 285.017C213.385 285.249 213.636 285.582 213.791 286.015H213.818C214.014 285.591 214.308 285.26 214.7 285.023C215.097 284.782 215.546 284.661 216.047 284.661C216.749 284.661 217.309 284.873 217.729 285.297C218.152 285.716 218.364 286.279 218.364 286.985V291.894H217.175V287.259C217.175 286.771 217.045 286.393 216.785 286.124C216.53 285.851 216.168 285.714 215.698 285.714C215.229 285.714 214.844 285.871 214.543 286.186C214.242 286.495 214.092 286.892 214.092 287.375V291.894H212.902V287.129C212.902 286.701 212.77 286.359 212.506 286.104C212.242 285.844 211.888 285.714 211.446 285.714C210.977 285.714 210.587 285.878 210.277 286.206C209.972 286.534 209.819 286.944 209.819 287.437V291.894H208.63Z" fill="#333333"/>
<path d="M222.227 291.005C222.787 291.005 223.257 290.832 223.635 290.485C224.018 290.134 224.209 289.704 224.209 289.193V288.612L222.309 288.729C221.83 288.76 221.459 288.877 221.194 289.077C220.935 289.278 220.805 289.547 220.805 289.884C220.805 290.221 220.935 290.492 221.194 290.697C221.454 290.902 221.798 291.005 222.227 291.005ZM221.96 292.017C221.254 292.017 220.682 291.821 220.244 291.429C219.811 291.037 219.595 290.522 219.595 289.884C219.595 289.273 219.818 288.785 220.265 288.421C220.716 288.056 221.352 287.851 222.172 287.806L224.209 287.689V287.095C224.209 286.662 224.072 286.322 223.799 286.076C223.525 285.83 223.143 285.707 222.65 285.707C222.199 285.707 221.832 285.807 221.55 286.008C221.267 286.204 221.087 286.479 221.01 286.835H219.861C219.902 286.201 220.176 285.682 220.682 285.276C221.192 284.866 221.857 284.661 222.678 284.661C223.512 284.661 224.173 284.871 224.66 285.29C225.152 285.709 225.398 286.272 225.398 286.979V291.894H224.271V290.67H224.243C224.029 291.076 223.715 291.401 223.3 291.647C222.885 291.894 222.438 292.017 221.96 292.017Z" fill="#333333"/>
<path d="M227.292 283.068H228.481V284.784H229.862V285.762H228.481V289.986C228.481 290.31 228.552 290.549 228.693 290.704C228.835 290.854 229.058 290.93 229.363 290.93C229.555 290.93 229.719 290.918 229.855 290.896V291.894C229.701 291.93 229.45 291.948 229.104 291.948C228.452 291.948 227.987 291.802 227.709 291.511C227.431 291.219 227.292 290.731 227.292 290.048V285.762H226.232V284.784H227.292V283.068Z" fill="#333333"/>
<path d="M231.517 283.068H232.706V284.784H234.087V285.762H232.706V289.986C232.706 290.31 232.777 290.549 232.918 290.704C233.059 290.854 233.283 290.93 233.588 290.93C233.779 290.93 233.943 290.918 234.08 290.896V291.894C233.925 291.93 233.674 291.948 233.328 291.948C232.676 291.948 232.212 291.802 231.934 291.511C231.656 291.219 231.517 290.731 231.517 290.048V285.762H230.457V284.784H231.517V283.068Z" fill="#333333"/>
<path d="M238.004 285.693C237.452 285.693 236.994 285.885 236.63 286.268C236.27 286.646 236.072 287.133 236.035 287.73H239.897C239.884 287.129 239.704 286.639 239.357 286.261C239.011 285.882 238.56 285.693 238.004 285.693ZM239.87 289.856H241.039C240.934 290.485 240.606 291.003 240.055 291.408C239.508 291.814 238.849 292.017 238.079 292.017C237.063 292.017 236.263 291.688 235.68 291.032C235.096 290.376 234.805 289.487 234.805 288.366C234.805 287.254 235.096 286.359 235.68 285.68C236.268 285.001 237.049 284.661 238.024 284.661C238.981 284.661 239.738 284.982 240.294 285.625C240.85 286.268 241.128 287.129 241.128 288.209V288.66H236.028V288.729C236.028 289.412 236.215 289.959 236.589 290.369C236.963 290.779 237.468 290.984 238.106 290.984C238.553 290.984 238.934 290.882 239.248 290.677C239.562 290.472 239.77 290.198 239.87 289.856Z" fill="#333333"/>
<path d="M242.331 291.894V284.784H243.452V285.946H243.479C243.598 285.55 243.81 285.238 244.115 285.01C244.425 284.777 244.787 284.661 245.202 284.661C245.298 284.661 245.457 284.677 245.681 284.709V285.864C245.553 285.819 245.341 285.796 245.045 285.796C244.585 285.796 244.215 285.949 243.938 286.254C243.66 286.559 243.521 286.963 243.521 287.464V291.894H242.331Z" fill="#333333"/>
<path d="M249.522 291.894V284.784H250.644V285.919H250.671C250.844 285.532 251.106 285.226 251.457 285.003C251.808 284.775 252.218 284.661 252.688 284.661C253.171 284.661 253.585 284.78 253.932 285.017C254.278 285.249 254.529 285.582 254.684 286.015H254.711C254.907 285.591 255.201 285.26 255.593 285.023C255.989 284.782 256.438 284.661 256.939 284.661C257.641 284.661 258.202 284.873 258.621 285.297C259.045 285.716 259.257 286.279 259.257 286.985V291.894H258.067V287.259C258.067 286.771 257.938 286.393 257.678 286.124C257.423 285.851 257.06 285.714 256.591 285.714C256.121 285.714 255.736 285.871 255.436 286.186C255.135 286.495 254.984 286.892 254.984 287.375V291.894H253.795V287.129C253.795 286.701 253.663 286.359 253.398 286.104C253.134 285.844 252.781 285.714 252.339 285.714C251.869 285.714 251.48 285.878 251.17 286.206C250.865 286.534 250.712 286.944 250.712 287.437V291.894H249.522Z" fill="#333333"/>
<path d="M263.721 292.017C262.727 292.017 261.93 291.686 261.328 291.025C260.727 290.36 260.426 289.465 260.426 288.339C260.426 287.213 260.727 286.32 261.328 285.659C261.93 284.994 262.727 284.661 263.721 284.661C264.71 284.661 265.505 284.994 266.106 285.659C266.708 286.32 267.009 287.213 267.009 288.339C267.009 289.46 266.708 290.353 266.106 291.019C265.505 291.684 264.71 292.017 263.721 292.017ZM262.196 290.273C262.575 290.738 263.083 290.971 263.721 290.971C264.359 290.971 264.865 290.741 265.238 290.28C265.612 289.815 265.799 289.168 265.799 288.339C265.799 287.509 265.612 286.865 265.238 286.404C264.865 285.939 264.359 285.707 263.721 285.707C263.083 285.707 262.575 285.939 262.196 286.404C261.823 286.869 261.636 287.514 261.636 288.339C261.636 289.164 261.823 289.809 262.196 290.273Z" fill="#333333"/>
<path d="M268.089 286.746C268.089 286.135 268.335 285.636 268.827 285.249C269.324 284.857 269.962 284.661 270.741 284.661C271.475 284.661 272.086 284.857 272.573 285.249C273.061 285.641 273.318 286.138 273.346 286.739H272.211C272.17 286.393 272.015 286.122 271.746 285.926C271.482 285.73 271.133 285.632 270.7 285.632C270.267 285.632 269.919 285.73 269.654 285.926C269.39 286.117 269.258 286.37 269.258 286.685C269.258 287.168 269.652 287.509 270.44 287.71L271.541 287.977C272.257 288.159 272.76 288.396 273.052 288.688C273.348 288.975 273.496 289.38 273.496 289.904C273.496 290.524 273.232 291.032 272.703 291.429C272.174 291.821 271.495 292.017 270.666 292.017C269.891 292.017 269.251 291.825 268.745 291.442C268.244 291.055 267.961 290.545 267.897 289.911H269.087C269.219 290.668 269.771 291.046 270.741 291.046C271.22 291.046 271.598 290.952 271.876 290.766C272.159 290.574 272.3 290.317 272.3 289.993C272.3 289.738 272.215 289.535 272.047 289.385C271.883 289.234 271.603 289.107 271.206 289.002L269.955 288.681C268.711 288.362 268.089 287.717 268.089 286.746Z" fill="#333333"/>
<path d="M275.116 283.068H276.306V284.784H277.687V285.762H276.306V289.986C276.306 290.31 276.376 290.549 276.518 290.704C276.659 290.854 276.882 290.93 277.188 290.93C277.379 290.93 277.543 290.918 277.68 290.896V291.894C277.525 291.93 277.274 291.948 276.928 291.948C276.276 291.948 275.811 291.802 275.533 291.511C275.255 291.219 275.116 290.731 275.116 290.048V285.762H274.057V284.784H275.116V283.068Z" fill="#333333"/>
<path d="M280.517 291.736C280.366 291.887 280.182 291.962 279.963 291.962C279.744 291.962 279.56 291.887 279.409 291.736C279.259 291.586 279.184 291.401 279.184 291.183C279.184 290.964 279.259 290.779 279.409 290.629C279.56 290.479 279.744 290.403 279.963 290.403C280.182 290.403 280.366 290.479 280.517 290.629C280.667 290.779 280.742 290.964 280.742 291.183C280.742 291.401 280.667 291.586 280.517 291.736Z" fill="#333333"/>
<g clip-path="url(#clip0)">
<path d="M286.152 256.765H63.3126C63.3126 256.765 54.4529 259.687 49.5658 236.648C44.6788 213.609 69.8307 207.474 75.8113 187.605C81.7919 167.735 55.7009 171.918 57.8942 144.727C60.0875 117.537 95.9217 117.011 113.314 120.675C130.706 124.339 128.531 111.785 148.641 90.8647C168.752 69.9449 199.192 72.0394 214.403 88.2513C229.614 104.463 224.733 121.194 243.757 121.194C262.78 121.194 280.172 124.858 291.583 159.889C302.994 194.92 282.136 210.934 282.513 226.726C282.832 236.827 284.05 246.88 286.152 256.765V256.765Z" fill="#4274FB"/>
<path opacity="0.7" d="M286.152 256.765H63.3126C63.3126 256.765 54.4529 259.687 49.5658 236.648C44.6788 213.609 69.8307 207.474 75.8113 187.605C81.7919 167.735 55.7009 171.918 57.8942 144.727C60.0875 117.537 95.9217 117.011 113.314 120.675C130.706 124.339 128.531 111.785 148.641 90.8647C168.752 69.9449 199.192 72.0394 214.403 88.2513C229.614 104.463 224.733 121.194 243.757 121.194C262.78 121.194 280.172 124.858 291.583 159.889C302.994 194.92 282.136 210.934 282.513 226.726C282.832 236.827 284.05 246.88 286.152 256.765V256.765Z" fill="white"/>
<path opacity="0.07" d="M102.953 112.415V256.759H97.5156V106.008L102.953 112.415ZM179.273 172.505L177.315 170.404V256.759H182.752V171.282L179.273 172.505ZM145.391 136.164V256.759H150.835V141.997L145.391 136.164ZM129.433 135.367V256.759H134.87V133.65L129.433 135.367ZM113.474 124.771V256.759H118.911V131.178L113.474 124.771ZM161.356 153.284V256.759H166.793V159.141L161.356 153.284ZM257.12 189.6V256.759H262.557V194.586L257.12 189.6ZM241.161 174.964V256.759H246.598V179.95L241.161 174.964ZM193.286 167.587V256.759H198.723V165.672L193.286 167.587ZM225.203 160.321V256.759H230.64V165.32L225.203 160.321ZM209.244 161.977V256.759H214.681V160.068L209.244 161.977Z" fill="black"/>
<path d="M274.95 205.707L222.076 157.467L176.783 175.217L141.14 131.598L123.989 137.122L96.0264 103.419" stroke="#4274FB" stroke-width="3" stroke-linecap="round" stroke-linejoin="round"/>
<path d="M102.211 100.744L90.083 96.2522L92.2578 109.004L102.211 100.744Z" fill="#4274FB"/>
<path d="M116.755 237.662L118.991 236.642L118.515 233.961L116.044 233.769C115.729 232.941 115.314 232.155 114.808 231.428L116.081 229.284L114.154 227.356L111.991 228.641C110.746 227.797 109.338 227.223 107.858 226.954L107.24 224.483H104.515L103.898 226.954C103.046 227.115 102.216 227.376 101.426 227.733L99.4739 226.046L97.2497 227.622L98.1703 230.037C97.578 230.651 97.0615 231.333 96.6319 232.07L94.0617 231.804L93.104 234.356L95.2294 235.802C95.1279 236.398 95.0762 237.001 95.0749 237.606C95.0749 237.865 95.0749 238.119 95.0749 238.372L92.8384 239.608L93.5489 242.246L96.0758 242.209C96.4476 243 96.9144 243.743 97.4659 244.421L96.4033 246.713L98.4915 248.467L100.518 247.015C101.284 247.457 102.102 247.804 102.952 248.047L103.36 250.519L106.072 250.76L106.894 248.443C107.785 248.365 108.663 248.176 109.507 247.88L111.219 249.623L113.579 248.257L112.961 245.91C113.643 245.327 114.251 244.663 114.771 243.933L117.169 244.377L118.324 241.906L116.47 240.349C116.675 239.468 116.771 238.566 116.755 237.662ZM112.72 237.612C112.72 238.956 112.322 240.27 111.575 241.388C110.828 242.505 109.767 243.377 108.525 243.891C107.283 244.405 105.917 244.54 104.598 244.278C103.28 244.015 102.069 243.368 101.118 242.418C100.168 241.467 99.5207 240.256 99.2585 238.938C98.9963 237.62 99.1308 236.253 99.6452 235.011C100.16 233.769 101.031 232.708 102.148 231.961C103.266 231.215 104.58 230.816 105.924 230.816C107.722 230.822 109.445 231.541 110.714 232.815C111.983 234.089 112.696 235.814 112.695 237.612H112.72Z" fill="white"/>
<path d="M100.166 212.503L102.403 211.484L101.927 208.796L99.4555 208.605C99.1418 207.778 98.7268 206.994 98.2198 206.269L99.4926 204.119L97.5649 202.192L95.3963 203.465C94.1509 202.621 92.7431 202.046 91.263 201.778L90.6452 199.307H87.9206L87.3027 201.778C86.4504 201.936 85.6205 202.197 84.8314 202.556L82.8791 200.87L80.6487 202.433L81.5693 204.842C80.9682 205.456 80.4415 206.138 80 206.875L77.4792 206.64L76.5463 209.204L78.6716 210.644C78.5699 211.242 78.5182 211.847 78.5172 212.454C78.5172 212.713 78.5172 212.967 78.5481 213.22L76.3115 214.456L77.0159 217.088L79.549 217.057C79.9223 217.845 80.389 218.586 80.9391 219.263L79.8455 221.536L81.9338 223.285L83.9603 221.839C84.7257 222.281 85.5435 222.626 86.3945 222.864L86.8023 225.336L89.5146 225.571L90.3363 223.26C91.2277 223.18 92.1056 222.989 92.9497 222.691L94.6611 224.434L97.0212 223.068L96.3725 220.721C97.0577 220.142 97.6679 219.48 98.1889 218.75L100.586 219.188L101.741 216.717L99.8571 215.166C100.068 214.294 100.172 213.4 100.166 212.503V212.503ZM96.1316 212.454C96.1316 213.798 95.733 215.112 94.9862 216.23C94.2394 217.347 93.178 218.218 91.9362 218.733C90.6944 219.247 89.3279 219.382 88.0095 219.12C86.6912 218.857 85.4803 218.21 84.5298 217.26C83.5794 216.309 82.9321 215.098 82.6698 213.78C82.4076 212.462 82.5422 211.095 83.0566 209.853C83.571 208.611 84.4421 207.55 85.5597 206.803C86.6773 206.056 87.9913 205.658 89.3354 205.658C91.1379 205.658 92.8665 206.374 94.141 207.648C95.4155 208.923 96.1316 210.652 96.1316 212.454Z" fill="white"/>
<path d="M135.142 169.243L140.56 166.771L139.411 160.26L133.43 159.796C132.671 157.791 131.667 155.888 130.44 154.131L133.529 148.922L128.852 144.245L123.601 147.334C120.581 145.288 117.168 143.895 113.579 143.244L112.059 137.251H105.449L103.929 143.288C101.879 143.673 99.8827 144.305 97.9852 145.172L93.2588 141.082L87.8404 144.876L90.077 150.72C88.6193 152.212 87.3438 153.871 86.2773 155.663L80.0557 155.045L77.7945 161.223L82.9472 164.72C82.699 166.171 82.573 167.641 82.5703 169.113C82.5703 169.731 82.5703 170.349 82.6445 170.967L77.2261 173.994L78.9375 180.382L85.0725 180.302C85.9734 182.218 87.1041 184.016 88.4397 185.659L85.7954 191.163L90.8554 195.414L95.7981 191.899C97.6598 192.963 99.6457 193.793 101.711 194.37L102.693 200.289L109.279 200.87L111.262 195.26C113.424 195.069 115.554 194.608 117.601 193.888L121.759 198.114L127.481 194.809L125.911 189.112C127.568 187.7 129.046 186.09 130.31 184.318L136.124 185.393L138.917 179.4L134.32 175.662C134.854 173.564 135.13 171.408 135.142 169.243V169.243ZM125.361 169.132C125.361 172.397 124.393 175.588 122.579 178.303C120.765 181.018 118.187 183.134 115.17 184.383C112.154 185.633 108.835 185.96 105.632 185.323C102.43 184.686 99.4884 183.114 97.1796 180.805C94.8709 178.496 93.2986 175.555 92.6616 172.352C92.0246 169.15 92.3516 165.831 93.6011 162.814C94.8505 159.798 96.9665 157.219 99.6813 155.405C102.396 153.591 105.588 152.623 108.853 152.623C111.021 152.622 113.168 153.049 115.171 153.878C117.175 154.707 118.995 155.923 120.528 157.457C122.061 158.99 123.277 160.81 124.106 162.813C124.936 164.816 125.362 166.963 125.361 169.132V169.132Z" fill="white"/>
<path d="M271.59 149.59L273.826 148.57L273.332 145.883L270.861 145.691C270.545 144.866 270.13 144.081 269.625 143.356L270.892 141.212L269.007 139.284L266.845 140.569C265.601 139.723 264.193 139.148 262.712 138.883L262.094 136.411H259.369L258.751 138.883C257.899 139.04 257.069 139.302 256.28 139.661L254.321 137.974L252.085 139.537L253.005 141.953C252.406 142.565 251.882 143.245 251.442 143.98L248.878 143.714L247.945 146.278L250.071 147.718C249.969 148.316 249.918 148.921 249.916 149.528C249.916 149.787 249.916 150.041 249.916 150.294L247.68 151.53L248.384 154.162L250.917 154.131C251.287 154.921 251.752 155.664 252.301 156.343L251.214 158.61L253.302 160.365L255.322 158.913C256.1 159.358 256.93 159.704 257.794 159.944L258.195 162.416L260.914 162.651L261.729 160.34C262.62 160.262 263.498 160.073 264.343 159.778L266.06 161.514L268.42 160.155L267.772 157.807C268.455 157.224 269.065 156.56 269.588 155.83L271.985 156.268L273.134 153.797L271.281 152.24C271.494 151.373 271.598 150.483 271.59 149.59V149.59ZM267.562 149.54C267.562 150.884 267.163 152.198 266.416 153.316C265.669 154.434 264.608 155.305 263.366 155.819C262.124 156.333 260.758 156.468 259.439 156.206C258.121 155.944 256.91 155.296 255.96 154.346C255.009 153.395 254.362 152.184 254.1 150.866C253.838 149.548 253.972 148.181 254.487 146.939C255.001 145.698 255.872 144.636 256.99 143.889C258.107 143.143 259.421 142.744 260.765 142.744C262.568 142.744 264.296 143.46 265.571 144.735C266.845 146.009 267.562 147.738 267.562 149.54V149.54Z" fill="white"/>
<path d="M225.815 208.277C224.579 211.367 223.269 208.895 223.473 195.89C223.566 189.798 223.998 177.355 230.733 180.092C237.207 182.724 228.675 201.098 228.675 201.098L225.815 208.277ZM235.082 210.131C235.082 210.131 249.132 195.495 243.861 190.904C238.381 186.122 233.933 197.756 231.863 203.483C227.446 215.716 227.853 218.49 230.053 215.963L235.082 210.131ZM238.048 223.266C238.048 223.266 250.905 214.11 247.544 209.834C244.041 205.386 238.956 213.634 236.546 217.718C231.4 226.429 231.307 228.61 233.352 226.985L238.048 223.266ZM241.526 236.358C241.526 236.358 254.383 227.208 251.022 222.932C247.525 218.484 242.44 226.732 240.025 230.816C234.878 239.521 234.792 241.708 236.831 240.083L241.526 236.358ZM219.068 210.032C219.068 210.032 201.077 200.666 198.148 207.011C195.102 213.615 207.521 214.616 213.594 214.987C226.568 215.79 229.12 214.616 226.08 213.22L219.068 210.032ZM221.601 220.338C221.601 220.338 202.108 214.74 200.502 221.536C198.828 228.616 211.197 227.127 217.227 226.287C230.102 224.489 232.37 222.834 229.114 222.074L221.601 220.338ZM226.068 231.582C226.068 231.582 209.448 227.294 208.25 233.083C207.014 239.107 217.418 237.563 222.503 236.71C233.352 234.894 235.23 233.442 232.456 232.873L226.068 231.582ZM228.669 240.85C228.669 240.85 212.605 234.819 210.789 240.448C208.935 246.305 219.439 245.879 224.579 245.57C235.558 244.915 237.553 243.673 234.884 242.808L228.669 240.85ZM217.906 193.839C217.906 193.839 210.573 171.041 202.251 175.18C193.601 179.505 203.591 189.773 208.602 194.691C219.29 205.194 222.596 205.93 221.187 202.266L217.906 193.839Z" fill="white"/>
<path d="M205.71 183.311C205.71 183.311 224.134 205.788 228.57 217.038C233.63 229.969 237.084 244.532 237.764 256.579" stroke="#CCCCCC" stroke-width="1.25197" stroke-linecap="round" stroke-linejoin="round"/>
<path d="M224.875 209.698L227.439 188.266" stroke="#CCCCCC" stroke-width="1.25197" stroke-linecap="round" stroke-linejoin="round"/>
<path d="M228.545 217.038L237.813 199.022" stroke="#CCCCCC" stroke-width="1.25197" stroke-linecap="round" stroke-linejoin="round"/>
<path d="M227.193 214.369L207.78 210.415" stroke="#CCCCCC" stroke-width="1.25197" stroke-linecap="round" stroke-linejoin="round"/>
<path d="M232.19 227.263L243.602 214.258" stroke="#CCCCCC" stroke-width="1.25197" stroke-linecap="round" stroke-linejoin="round"/>
<path d="M230.596 222.982L215.941 222.852" stroke="#CCCCCC" stroke-width="1.25197" stroke-linecap="round" stroke-linejoin="round"/>
<path d="M233.414 233.615L222.176 234.06" stroke="#CCCCCC" stroke-width="1.25197" stroke-linecap="round" stroke-linejoin="round"/>
<path d="M235.725 240.405L241.742 232.385" stroke="#CCCCCC" stroke-width="1.25197" stroke-linecap="round" stroke-linejoin="round"/>
<path d="M236.163 243.389L223.022 242.734" stroke="#CCCCCC" stroke-width="1.25197" stroke-linecap="round" stroke-linejoin="round"/>
<path d="M272.776 226.034C270.509 226.887 271.207 224.977 278.219 218.694C281.506 215.753 288.339 209.865 290.193 214.796C291.972 219.528 277.99 224.063 277.99 224.063L272.776 226.034ZM276.347 231.86C276.347 231.86 291.033 232.138 290.885 227.078C290.736 221.814 282.359 225.163 278.293 226.88C269.644 230.544 268.346 232.126 270.768 232.052L276.347 231.86ZM270.787 239.892C270.787 239.892 281.982 242.234 282.599 238.341C283.217 234.294 276.359 235.647 273.005 236.37C265.838 237.909 264.633 238.934 266.499 239.231L270.787 239.892ZM265.535 248.183C265.535 248.183 276.724 250.519 277.348 246.632C277.966 242.586 271.102 243.933 267.747 244.655C260.586 246.2 259.381 247.226 261.241 247.522L265.535 248.183ZM268.501 223.291C268.501 223.291 264.639 209.118 259.851 210.681C254.84 212.306 260.413 219.405 263.2 222.821C269.149 230.118 271.028 230.896 270.28 228.592L268.501 223.291ZM264.262 229.71C264.262 229.71 257.658 216.587 253.252 219.071C248.668 221.666 255.538 227.511 258.949 230.303C266.233 236.271 268.216 236.661 267.036 234.554L264.262 229.71ZM260.475 237.606C260.475 237.606 254.587 226.664 250.923 228.87C247.099 231.162 253.049 235.95 255.996 238.236C262.298 243.111 263.99 243.395 262.934 241.64L260.475 237.606ZM256.817 243.549C256.817 243.549 252.128 232.045 248.242 233.85C244.201 235.703 249.607 241.115 252.301 243.698C258.041 249.221 259.715 249.678 258.832 247.825L256.817 243.549ZM276.539 214.721C276.539 214.721 285.058 199.615 278.763 197.224C272.208 194.753 271.664 205.108 271.509 210.199C271.176 221.048 272.405 223.173 273.666 220.616L276.539 214.721Z" fill="white"/>
<path d="M276.18 203.069C276.18 203.069 273.276 223.915 269.458 231.792C265.071 240.837 258.454 250.469 252.375 256.759" stroke="#CCCCCC" stroke-width="1.25197" stroke-linecap="round" stroke-linejoin="round"/>
<path d="M271.559 226.232L284.225 217.057" stroke="#CCCCCC" stroke-width="1.25197" stroke-linecap="round" stroke-linejoin="round"/>
<path d="M269.458 231.792L283.6 227.863" stroke="#CCCCCC" stroke-width="1.25197" stroke-linecap="round" stroke-linejoin="round"/>
<path d="M270.212 229.759L262.779 217.489" stroke="#CCCCCC" stroke-width="1.25197" stroke-linecap="round" stroke-linejoin="round"/>
<path d="M265.813 238.755L278.343 238.434" stroke="#CCCCCC" stroke-width="1.25197" stroke-linecap="round" stroke-linejoin="round"/>
<path d="M267.308 235.802L260.172 227.943" stroke="#CCCCCC" stroke-width="1.25197" stroke-linecap="round" stroke-linejoin="round"/>
<path d="M263.039 242.53L257.275 236.772" stroke="#CCCCCC" stroke-width="1.25197" stroke-linecap="round" stroke-linejoin="round"/>
<path d="M260.562 247.096L267.784 246.354" stroke="#CCCCCC" stroke-width="1.25197" stroke-linecap="round" stroke-linejoin="round"/>
<path d="M259.19 248.795L253.08 241.486" stroke="#CCCCCC" stroke-width="1.25197" stroke-linecap="round" stroke-linejoin="round"/>
<path d="M181.454 272.662C203.733 272.662 221.793 269.652 221.793 265.94C221.793 262.227 203.733 259.218 181.454 259.218C159.176 259.218 141.116 262.227 141.116 265.94C141.116 269.652 159.176 272.662 181.454 272.662Z" fill="#4274FB"/>
<path opacity="0.5" d="M181.454 272.662C203.733 272.662 221.793 269.652 221.793 265.94C221.793 262.227 203.733 259.218 181.454 259.218C159.176 259.218 141.116 262.227 141.116 265.94C141.116 269.652 159.176 272.662 181.454 272.662Z" fill="white"/>
<path d="M177.97 118.822C173.411 127.164 172.188 136.926 174.547 146.136C178.507 161.619 189.499 179.536 189.499 179.536L203.19 175.211C203.19 175.211 202.109 149.466 196.344 137.289C190.58 125.111 179.953 118.469 177.97 118.822Z" fill="#263238" stroke="#263238" stroke-linecap="round" stroke-linejoin="round"/>
<path d="M187.336 117.913C182.769 126.606 181.552 136.673 183.914 146.204C187.88 162.268 198.871 180.802 198.871 180.802L212.563 176.28C212.563 176.28 211.481 149.621 205.717 137.004C199.953 124.388 189.307 117.586 187.336 117.913Z" fill="#4274FB"/>
<path opacity="0.29" d="M186.836 125C182.785 132.709 181.706 141.638 183.802 150.09C187.318 164.3 197.067 180.772 197.067 180.772L209.214 176.78C209.214 176.78 208.256 153.124 203.141 141.941C198.025 130.758 188.578 124.697 186.836 125Z" fill="black"/>
<path d="M187.336 117.913C182.769 126.606 181.552 136.673 183.914 146.204C187.88 162.268 198.871 180.802 198.871 180.802L212.563 176.28C212.563 176.28 211.481 149.621 205.717 137.004C199.953 124.388 189.307 117.586 187.336 117.913Z" stroke="#263238" stroke-linecap="round" stroke-linejoin="round"/>
<path d="M187.336 117.913C184.491 123.258 182.928 129.191 182.771 135.244C185.382 135.355 187.998 135.169 190.568 134.688C194.596 133.977 198.454 132.51 201.936 130.363C196.171 122.034 188.936 117.623 187.336 117.913Z" fill="#263238" stroke="#263238" stroke-linecap="round" stroke-linejoin="round"/>
<path d="M212.395 173.308L197.537 178.455C198.365 179.938 198.871 180.79 198.871 180.79L212.562 176.28C212.562 176.28 212.513 175.174 212.395 173.308Z" fill="#263238" stroke="#263238" stroke-linecap="round" stroke-linejoin="round"/>
<path d="M153.145 258.038C153.145 258.038 147.956 261.813 143.711 262.98C139.467 264.148 142.296 266.514 145.596 266.514C148.895 266.514 154.325 265.334 156.92 265.334C159.515 265.334 161.863 266.28 162.821 263.919C163.778 261.559 163.055 260.145 163.055 260.145C163.055 260.145 156.451 258.272 153.145 258.038Z" fill="white" stroke="#263238" stroke-linecap="round" stroke-linejoin="round"/>
<path d="M157.378 263.839C153.281 263.839 151.551 265.136 147.344 265.458C145.368 265.677 143.379 265.184 141.734 264.068C140.943 265.223 143.143 266.539 145.596 266.539C148.901 266.539 154.326 265.359 156.92 265.359C159.515 265.359 161.863 266.304 162.821 263.944C163.036 263.415 163.184 262.861 163.259 262.294C161.427 263.21 159.424 263.736 157.378 263.839V263.839Z" fill="white" stroke="#263238" stroke-linecap="round" stroke-linejoin="round"/>
<path d="M192.891 259.199C192.891 259.199 189.764 264.383 187.948 265.89C186.131 267.398 184.927 269.128 186.972 269.239C189.017 269.35 193.237 268.158 197.123 266.539C201.009 264.92 204.784 260.713 204.784 260.064C204.784 259.415 202.844 256.499 202.844 256.499C202.844 256.499 195.59 257.692 192.891 259.199Z" fill="white" stroke="#263238" stroke-linecap="round" stroke-linejoin="round"/>
<path d="M204.364 259.069C201.825 261.831 198.724 264.015 195.269 265.476C190.499 267.521 187.386 268.077 185.946 268.232C185.755 268.8 185.996 269.208 186.953 269.257C189.004 269.362 193.218 268.176 197.104 266.558C200.99 264.939 204.765 260.731 204.765 260.083C204.694 259.724 204.557 259.38 204.364 259.069V259.069Z" fill="white" stroke="#263238" stroke-linecap="round" stroke-linejoin="round"/>
<path d="M164.235 178.066L161.406 187.265C161.406 187.265 151.001 209.674 148.901 215.574C146.8 221.474 151.73 231.854 152.206 238.434C152.682 245.014 152.441 254.003 152.441 254.003C152.179 254.199 151.961 254.447 151.798 254.731C151.636 255.014 151.533 255.328 151.496 255.653V258.742L163.76 261.572C163.76 261.572 164.235 255.678 163.76 252.613C163.284 249.549 162.821 230.433 162.821 227.603C162.821 224.774 161.875 219.114 161.875 219.114L170.84 207.32C170.84 207.32 168.245 221.233 169.19 223.828C170.136 226.423 178.39 236.333 180.509 238.218C182.628 240.102 193.484 254.732 193.484 254.732C193.484 254.732 191.834 256.147 191.834 257.327C191.902 258.44 192.059 259.545 192.303 260.633L203.394 257.543C203.394 257.543 201.979 253.064 199.619 247.164C197.258 241.264 184.049 220.511 184.049 220.511C184.049 220.511 194.664 194.086 194.664 188.192C194.664 182.298 194.898 178.047 194.898 178.047C194.898 178.047 176.499 183.021 164.235 178.066Z" fill="#263238" stroke="#263238" stroke-linecap="round" stroke-linejoin="round"/>
<path d="M170.84 207.32L173.669 193.4L169.895 188.445" stroke="white" stroke-linecap="round" stroke-linejoin="round"/>
<path d="M153.01 174.822C152.77 174.871 152.522 174.827 152.313 174.699C152.105 174.572 151.953 174.37 151.888 174.135C151.823 173.899 151.849 173.648 151.963 173.431C152.076 173.215 152.267 173.049 152.497 172.968L177.019 163.701C177.137 163.656 177.263 163.635 177.39 163.64C177.516 163.644 177.641 163.673 177.756 163.725C177.871 163.777 177.975 163.851 178.062 163.944C178.148 164.036 178.216 164.145 178.26 164.263C178.305 164.382 178.326 164.508 178.322 164.634C178.318 164.761 178.289 164.885 178.237 165.001C178.184 165.116 178.11 165.22 178.018 165.306C177.925 165.393 177.817 165.46 177.698 165.505L153.183 174.772C153.127 174.794 153.069 174.811 153.01 174.822V174.822Z" fill="#263238" stroke="#263238" stroke-linecap="round" stroke-linejoin="round"/>
<path d="M154.041 162.688C154.041 162.688 156.673 163.479 163.735 159.494L165.675 167.124C165.675 167.124 160.665 169.286 153.257 168.267L154.041 162.688Z" fill="white"/>
<path opacity="0.15" d="M154.041 162.688C154.041 162.688 156.673 163.479 163.735 159.494L165.675 167.124C165.675 167.124 160.665 169.286 153.257 168.267L154.041 162.688Z" fill="black"/>
<path d="M154.041 162.688C154.041 162.688 156.673 163.479 163.735 159.494L165.675 167.124C165.675 167.124 160.665 169.286 153.257 168.267L154.041 162.688Z" stroke="#263238" stroke-linecap="round" stroke-linejoin="round"/>
<path d="M153.72 173.141C153.371 173.14 153.031 173.024 152.754 172.81C152.478 172.597 152.278 172.299 152.188 171.961L148.413 157.751C148.359 157.548 148.346 157.337 148.374 157.129C148.402 156.921 148.471 156.721 148.577 156.54C148.682 156.358 148.823 156.2 148.99 156.073C149.156 155.945 149.347 155.852 149.55 155.799C149.752 155.745 149.964 155.732 150.172 155.76C150.38 155.789 150.58 155.857 150.761 155.963C150.943 156.069 151.101 156.209 151.228 156.376C151.355 156.543 151.448 156.733 151.502 156.936L155.277 171.146C155.331 171.347 155.345 171.557 155.317 171.764C155.29 171.97 155.222 172.169 155.118 172.35C155.013 172.53 154.874 172.688 154.709 172.814C154.543 172.94 154.354 173.033 154.152 173.086C154.012 173.125 153.866 173.143 153.72 173.141V173.141Z" fill="#4274FB" stroke="#263238" stroke-miterlimit="10"/>
<path d="M155.178 159.765C153.374 158.987 152.027 164.504 154.338 166.129C155.573 166.994 156.352 165.351 156.469 164.276C156.587 163.2 156.549 161.335 155.938 160.451C155.751 160.158 155.489 159.921 155.178 159.765V159.765Z" fill="white" stroke="#263238" stroke-linecap="round" stroke-linejoin="round"/>
<path d="M154.591 167.995C154.591 167.995 151.916 167.896 150.884 168.792C149.852 169.688 150.618 170.757 151.23 170.645C151.842 170.534 154.684 170.268 155.246 169.681C155.808 169.095 155.814 168.767 154.591 167.995Z" fill="white" stroke="#263238" stroke-linecap="round" stroke-linejoin="round"/>
<path d="M153.868 165.536C153.868 165.536 150.779 165.363 149.587 166.432C148.394 167.501 149.315 168.835 150.025 168.736C150.736 168.637 154.035 168.341 154.678 167.63C155.32 166.92 155.326 166.5 153.868 165.536Z" fill="white" stroke="#263238" stroke-linecap="round" stroke-linejoin="round"/>
<path d="M153.584 163.021C153.584 163.021 149.815 162.329 148.221 163.454C146.627 164.578 147.517 166.339 148.4 166.333C149.284 166.327 153.343 166.469 154.239 165.715C155.135 164.961 155.184 164.424 153.584 163.021Z" fill="white" stroke="#263238" stroke-linecap="round" stroke-linejoin="round"/>
<path d="M153.38 160.025C153.38 160.025 149.617 159.333 148.017 160.457C146.417 161.582 147.319 163.336 148.203 163.33C149.086 163.324 153.145 163.466 154.041 162.712C154.937 161.959 154.98 161.452 153.38 160.025Z" fill="white" stroke="#263238" stroke-linecap="round" stroke-linejoin="round"/>
<path d="M163.228 133.094C163.228 133.094 158.607 141.583 159.484 148.7C160.362 155.817 163.228 162.91 163.976 166.049C164.724 169.187 162.351 176.552 162.852 178.776C163.352 181 173.837 182.149 182.826 182.526C191.815 182.903 195.8 180.524 196.307 178.028C196.814 175.532 197.055 175.909 196.678 171.288C196.301 166.667 192.186 142.207 189.69 137.462C187.194 132.717 175.338 128.602 173.336 128.089C171.334 127.576 165.829 128.355 163.228 133.094Z" fill="white"/>
<path opacity="0.15" d="M185.699 138.981L180.96 146.395C180.96 146.395 180.552 149.899 182.406 152.574C183.489 154.154 184.659 155.675 185.909 157.127L176.839 152.388C176.839 152.388 182.82 161.656 184.463 163.509C186.106 165.363 188.584 168.452 186.113 171.961C183.722 175.347 172.854 179.703 171.767 181.661C175.171 182.094 179.125 182.378 182.826 182.532C191.809 182.903 195.8 180.531 196.307 178.035C196.814 175.539 197.054 175.915 196.678 171.294C196.325 166.969 192.693 145.246 190.184 138.605C188.312 138.154 186.706 138.172 185.699 138.981Z" fill="black"/>
<path d="M163.228 133.094C163.228 133.094 158.607 141.583 159.484 148.7C160.362 155.817 163.228 162.91 163.976 166.049C164.724 169.187 162.351 176.552 162.852 178.776C163.352 181 173.837 182.149 182.826 182.526C191.815 182.903 195.8 180.524 196.307 178.028C196.814 175.532 197.055 175.909 196.678 171.288C196.301 166.667 192.186 142.207 189.69 137.462C187.194 132.717 175.338 128.602 173.336 128.089C171.334 127.576 165.829 128.355 163.228 133.094Z" stroke="#263238" stroke-linecap="round" stroke-linejoin="round"/>
<path d="M172.966 125.482L163.976 136.838L168.752 143.578L176.679 128.713L172.966 125.482Z" fill="white" stroke="#263238" stroke-linecap="round" stroke-linejoin="round"/>
<path d="M160.399 136.084L160.3 141.206L164.396 138.747L160.399 136.084Z" fill="white" stroke="#263238" stroke-linecap="round" stroke-linejoin="round"/>
<path d="M161.838 131.883L160.399 136.084L166.034 141.101L161.838 131.883Z" fill="white" stroke="#263238" stroke-linecap="round" stroke-linejoin="round"/>
<path d="M159.552 126.05C159.552 126.05 164.124 138.598 165.434 138.203C166.744 137.808 171.971 128.935 172.23 127.224C172.49 125.513 170.661 121.472 170.661 121.472C168.175 122.075 165.763 122.951 163.469 124.085C159.416 126.05 159.552 126.05 159.552 126.05Z" fill="white"/>
<path d="M163.469 124.085L163.296 124.172C163.189 124.529 163.031 124.868 162.827 125.179C161.641 126.952 160.634 127.508 160.164 127.681C160.201 127.78 160.238 127.879 160.281 127.984L169.339 133.032C170.797 130.604 172.101 128.089 172.23 127.243C172.49 125.544 170.661 121.491 170.661 121.491C168.175 122.088 165.764 122.958 163.469 124.085V124.085Z" fill="#4274FB"/>
<path opacity="0.5" d="M163.469 124.085L163.296 124.172C163.189 124.529 163.031 124.868 162.827 125.179C161.641 126.952 160.634 127.508 160.164 127.681C160.201 127.78 160.238 127.879 160.281 127.984L169.339 133.032C170.797 130.604 172.101 128.089 172.23 127.243C172.49 125.544 170.661 121.491 170.661 121.491C168.175 122.088 165.764 122.958 163.469 124.085V124.085Z" fill="white"/>
<path d="M159.552 126.05C159.552 126.05 164.124 138.598 165.434 138.203C166.744 137.808 171.971 128.935 172.23 127.224C172.49 125.513 170.661 121.472 170.661 121.472C168.175 122.075 165.763 122.951 163.469 124.085C159.416 126.05 159.552 126.05 159.552 126.05Z" stroke="#263238" stroke-linecap="round" stroke-linejoin="round"/>
<path d="M159.484 148.7C159.484 148.7 162.104 152.32 175.208 152.191L177.581 155.688C177.581 155.688 167.22 157.937 160.108 151.944L159.484 148.7Z" fill="#263238" stroke="#263238" stroke-linecap="round" stroke-linejoin="round"/>
<path d="M179.576 130.474C179.576 130.474 175.461 131.221 173.466 139.21C171.47 147.199 176.209 157.683 183.697 160.556C191.185 163.429 195.059 158.307 195.059 158.307L193.935 155.564C193.935 155.564 191.315 160.68 184.821 157.936C178.328 155.193 175.832 148.477 176.332 141.83C176.833 135.182 182.826 132.099 182.826 132.099L179.576 130.474Z" fill="#263238" stroke="#263238" stroke-linecap="round" stroke-linejoin="round"/>
<path d="M167.065 180.067C166.796 180.076 166.533 179.981 166.331 179.803C166.13 179.624 166.003 179.376 165.979 179.107C165.955 178.839 166.034 178.571 166.2 178.359C166.366 178.147 166.607 178.007 166.874 177.967L212.439 161.94C212.716 161.888 213.002 161.947 213.235 162.106C213.468 162.265 213.628 162.51 213.681 162.787C213.733 163.063 213.673 163.35 213.514 163.583C213.356 163.816 213.111 163.976 212.834 164.028L167.263 180.055C167.197 180.065 167.131 180.069 167.065 180.067V180.067Z" fill="#263238" stroke="#263238" stroke-linecap="round" stroke-linejoin="round"/>
<path d="M168.635 178.245C168.245 178.245 167.866 178.116 167.557 177.88C167.248 177.643 167.025 177.311 166.923 176.935L162.741 161.1C162.666 160.871 162.64 160.629 162.662 160.389C162.684 160.149 162.755 159.916 162.871 159.705C162.986 159.493 163.143 159.308 163.333 159.159C163.522 159.01 163.74 158.902 163.973 158.84C164.206 158.778 164.449 158.764 164.687 158.8C164.925 158.835 165.154 158.918 165.359 159.045C165.564 159.171 165.741 159.338 165.879 159.535C166.017 159.733 166.114 159.956 166.163 160.192L170.377 176.021C170.498 176.472 170.437 176.953 170.205 177.359C169.974 177.765 169.591 178.063 169.141 178.189C168.976 178.23 168.805 178.248 168.635 178.245V178.245Z" fill="#4274FB" stroke="#263238" stroke-miterlimit="10"/>
<path d="M177.568 169.539C177.568 169.539 172.076 165.301 170.457 164.177C168.838 163.052 165.088 164.547 163.84 164.547C162.592 164.547 160.967 165.783 161.22 166.673C161.466 167.288 161.898 167.811 162.456 168.168C162.456 168.168 161.579 169.669 162.326 170.794C162.741 171.332 163.001 171.972 163.08 172.647C163.385 173.405 163.853 174.086 164.451 174.643C165.199 175.143 166.824 175.39 168.82 175.39C170.815 175.39 174.312 174.019 174.312 174.019L177.809 173.895L177.568 169.539Z" fill="white"/>
<path d="M174.337 174.037L177.834 173.914L177.784 173.055L177.253 170.509C177.253 170.509 171.279 166.802 168.801 167.006C166.324 167.21 164.89 167.192 164.68 170.923C164.625 171.716 164.739 172.512 165.015 173.258C165.291 174.004 165.722 174.682 166.28 175.248C167.13 175.369 167.987 175.427 168.844 175.421C170.84 175.409 174.337 174.037 174.337 174.037Z" fill="#4274FB"/>
<path opacity="0.5" d="M174.337 174.037L177.834 173.914L177.784 173.055L177.253 170.509C177.253 170.509 171.279 166.802 168.801 167.006C166.324 167.21 164.89 167.192 164.68 170.923C164.625 171.716 164.739 172.512 165.015 173.258C165.291 174.004 165.722 174.682 166.28 175.248C167.13 175.369 167.987 175.427 168.844 175.421C170.84 175.409 174.337 174.037 174.337 174.037Z" fill="white"/>
<path d="M177.568 169.539C177.568 169.539 172.076 165.301 170.457 164.177C168.838 163.052 165.088 164.547 163.84 164.547C162.592 164.547 160.967 165.783 161.22 166.673C161.466 167.288 161.898 167.811 162.456 168.168C162.456 168.168 161.579 169.669 162.326 170.794C162.741 171.332 163.001 171.972 163.08 172.647C163.385 173.405 163.853 174.086 164.451 174.643C165.199 175.143 166.824 175.39 168.82 175.39C170.815 175.39 174.312 174.019 174.312 174.019L177.809 173.895L177.568 169.539Z" stroke="#263238" stroke-linecap="round" stroke-linejoin="round"/>
<path d="M181.201 134.471C181.201 134.471 176.71 138.586 178.458 144.079C180.207 149.571 187.454 154.687 189.307 157.183C190.671 158.926 192.175 160.555 193.805 162.051C193.805 162.051 188.183 164.801 184.192 166.549C181.927 167.544 179.591 168.37 177.204 169.02L177.328 173.759C177.328 173.759 191.056 174.377 197.42 171.906C203.783 169.434 208.405 166.29 208.405 162.546C208.405 158.802 200.428 151.82 196.178 145.079C191.927 138.339 188.813 134.842 184.575 134.218" fill="white"/>
<path opacity="0.15" d="M197.425 171.912C203.795 169.441 208.41 166.296 208.41 162.552C208.41 158.808 200.428 151.82 196.177 145.079C193.131 140.236 190.66 137.079 187.935 135.448C189.122 136.634 192.742 140.421 192.915 142.485C193.119 144.956 182.82 143.93 184.673 145.166C186.527 146.402 194.973 149.287 198.686 152.58C202.399 155.873 207.131 158.758 205.074 161.23C203.017 163.701 193.335 166.79 186.323 171.325C185.298 171.919 184.446 172.771 183.852 173.796C188.263 173.71 193.947 173.277 197.425 171.912Z" fill="black"/>
<path d="M181.201 134.471C181.201 134.471 176.71 138.586 178.458 144.079C180.207 149.571 187.454 154.687 189.307 157.183C190.671 158.926 192.175 160.555 193.805 162.051C193.805 162.051 188.183 164.801 184.192 166.549C181.927 167.544 179.591 168.37 177.204 169.02L177.328 173.759C177.328 173.759 191.056 174.377 197.42 171.906C203.783 169.434 208.405 166.29 208.405 162.546C208.405 158.802 200.428 151.82 196.178 145.079C191.927 138.339 188.813 134.842 184.575 134.218" stroke="#263238" stroke-linecap="round" stroke-linejoin="round"/>
<path d="M179.83 168.291L180.33 173.784" stroke="#263238" stroke-linecap="round" stroke-linejoin="round"/>
<path d="M193.811 162.07C193.811 162.07 198.303 159.073 201.176 158.326" stroke="#263238" stroke-linecap="round" stroke-linejoin="round"/>
<path d="M158.162 106.082C157.671 107.294 157.244 108.531 156.883 109.789C156.581 111.062 154.968 113.366 154.023 113.953C153.078 114.54 150.872 115.362 151.842 116.424C152.704 117.207 153.687 117.845 154.752 118.315C154.752 118.315 153.992 122.702 154.474 125.229C154.956 127.755 156.735 128.182 158.348 128.157C159.96 128.132 166.046 127.409 168.103 124.938C170.161 122.467 173.472 114.651 171.847 109.573C170.222 104.494 161.041 101.257 158.162 106.082Z" fill="white"/>
<path d="M162.005 114.874C162.827 118.173 164.476 122.702 162.827 125.179C161.177 127.657 159.867 127.762 159.867 127.762L160.275 127.984C162.746 127.657 166.558 126.785 168.103 124.932C170.16 122.461 173.472 114.645 171.847 109.566C171.596 108.815 171.211 108.116 170.71 107.503L163.858 108.899C163.858 108.899 161.177 111.574 162.005 114.874Z" fill="#4274FB"/>
<path opacity="0.5" d="M162.005 114.874C162.827 118.173 164.476 122.702 162.827 125.179C161.177 127.657 159.867 127.762 159.867 127.762L160.275 127.984C162.746 127.657 166.558 126.785 168.103 124.932C170.16 122.461 173.472 114.645 171.847 109.566C171.596 108.815 171.211 108.116 170.71 107.503L163.858 108.899C163.858 108.899 161.177 111.574 162.005 114.874Z" fill="white"/>
<path d="M158.162 106.082C157.671 107.294 157.244 108.531 156.883 109.789C156.581 111.062 154.968 113.366 154.023 113.953C153.078 114.54 150.872 115.362 151.842 116.424C152.704 117.207 153.687 117.845 154.752 118.315C154.752 118.315 153.992 122.702 154.474 125.229C154.956 127.755 156.735 128.182 158.348 128.157C159.96 128.132 166.046 127.409 168.103 124.938C170.161 122.467 173.472 114.651 171.847 109.573C170.222 104.494 161.041 101.257 158.162 106.082Z" stroke="#263238" stroke-linecap="round" stroke-linejoin="round"/>
<path d="M166.447 124.042C166.447 124.042 162.74 127.23 159.898 127.749C159.898 127.749 164.841 128.454 169.988 124.209L166.447 124.042Z" fill="#263238" stroke="#263238" stroke-linecap="round" stroke-linejoin="round"/>
<path d="M158.761 110.388C158.761 110.388 160.114 107.972 161.597 111.055" stroke="#263238" stroke-linecap="round" stroke-linejoin="round"/>
<path d="M155.981 119.94C155.981 119.94 158.409 121.046 160.349 119.625" stroke="#263238" stroke-linecap="round" stroke-linejoin="round"/>
<path d="M159.256 112.853C159.114 113.471 158.805 113.891 158.558 113.83C158.311 113.768 158.224 113.243 158.366 112.643C158.508 112.044 158.817 111.612 159.064 111.667C159.312 111.723 159.398 112.254 159.256 112.853Z" fill="#263238"/>
<path d="M155.623 107.837C155.623 107.837 165.712 110.604 165.928 112.538C166.145 114.472 164.365 118.55 165.311 122.658C166.256 126.767 171.853 127.959 176.524 126.365C181.195 124.771 184.556 116.171 183.938 109.066C183.32 101.961 176.086 97.8153 170.426 96.7465C164.767 95.6776 156.173 99.7738 155.623 107.837Z" fill="#4274FB"/>
<path opacity="0.29" d="M174.782 102.511C173.836 102.346 172.876 102.269 171.915 102.282C172.302 102.672 172.524 103.197 172.533 103.746C172.533 104.402 172.273 105.03 171.809 105.494C171.346 105.957 170.717 106.218 170.062 106.218C169.406 106.218 168.778 105.957 168.314 105.494C167.851 105.03 167.59 104.402 167.59 103.746C167.59 103.59 167.609 103.435 167.646 103.283C165.113 104.556 163.321 106.904 161.468 109.739C163.754 110.623 165.861 111.667 165.959 112.538C166.182 114.472 164.396 118.55 165.342 122.658C166.287 126.767 171.884 127.959 176.555 126.365C180.967 124.864 184.21 117.098 184.043 110.234C183.191 108.374 180.59 103.506 174.782 102.511Z" fill="black"/>
<path d="M155.623 107.837C155.623 107.837 165.712 110.604 165.928 112.538C166.145 114.472 164.365 118.55 165.311 122.658C166.256 126.767 171.853 127.959 176.524 126.365C181.195 124.771 184.556 116.171 183.938 109.066C183.32 101.961 176.086 97.8153 170.426 96.7465C164.767 95.6776 156.173 99.7738 155.623 107.837Z" stroke="#263238" stroke-linecap="round" stroke-linejoin="round"/>
<path d="M168.128 122.949C165.657 119.001 168.863 113.063 167.387 111.358C166.151 109.956 158.613 107.25 155.833 106.286C155.73 106.798 155.66 107.316 155.623 107.837C155.623 107.837 165.712 110.604 165.928 112.538C166.145 114.472 164.365 118.55 165.311 122.658C166.256 126.767 171.853 127.959 176.524 126.365H176.586C173.274 126.526 169.747 125.537 168.128 122.949Z" fill="#263238" stroke="#263238" stroke-linecap="round" stroke-linejoin="round"/>
</g>
<rect x="111" y="313.894" width="121.826" height="26.1924" rx="4" fill="white"/>
<path d="M146.853 327.82C146.853 329.156 146.477 330.201 145.725 330.958C144.977 331.71 143.936 332.086 142.601 332.086C141.188 332.086 140.067 331.626 139.237 330.705C138.412 329.78 138 328.527 138 326.945C138 325.391 138.41 324.161 139.23 323.254C140.055 322.347 141.172 321.894 142.58 321.894C143.678 321.894 144.608 322.192 145.369 322.789C146.135 323.386 146.604 324.177 146.777 325.161H145.205C145.023 324.55 144.701 324.076 144.241 323.739C143.781 323.402 143.229 323.233 142.587 323.233C141.644 323.233 140.903 323.562 140.365 324.218C139.832 324.869 139.565 325.774 139.565 326.932C139.565 328.112 139.839 329.044 140.386 329.728C140.933 330.407 141.675 330.746 142.614 330.746C143.412 330.746 144.063 330.514 144.569 330.049C145.075 329.579 145.333 328.971 145.342 328.224V328.053H142.792V326.815H146.853V327.82Z" fill="#4274FB"/>
<path d="M152.431 326.31C152.107 325.963 151.69 325.79 151.18 325.79C150.669 325.79 150.245 325.965 149.908 326.316C149.571 326.663 149.384 327.112 149.348 327.663H152.943C152.925 327.107 152.754 326.656 152.431 326.31ZM152.937 329.81H154.338C154.233 330.47 153.896 331.01 153.326 331.43C152.757 331.849 152.062 332.059 151.241 332.059C150.188 332.059 149.359 331.728 148.753 331.067C148.151 330.402 147.851 329.5 147.851 328.36C147.851 327.23 148.151 326.321 148.753 325.633C149.359 324.945 150.168 324.601 151.18 324.601C152.173 324.601 152.962 324.926 153.545 325.578C154.128 326.225 154.42 327.096 154.42 328.189V328.695H149.341V328.784C149.341 329.413 149.516 329.917 149.867 330.295C150.218 330.673 150.688 330.862 151.275 330.862C151.69 330.862 152.046 330.767 152.342 330.575C152.638 330.384 152.836 330.129 152.937 329.81Z" fill="#4274FB"/>
<path d="M155.999 323.028H157.482V324.73H158.85V325.899H157.482V329.864C157.482 330.174 157.553 330.402 157.694 330.548C157.836 330.694 158.057 330.767 158.357 330.767C158.576 330.767 158.738 330.755 158.843 330.732V331.901C158.66 331.947 158.387 331.97 158.022 331.97C157.298 331.97 156.778 331.822 156.464 331.525C156.154 331.225 155.999 330.726 155.999 330.028V325.899H154.953V324.73H155.999V323.028Z" fill="#4274FB"/>
<path d="M162.65 329.174H164.161C164.216 329.661 164.46 330.053 164.893 330.35C165.326 330.646 165.868 330.794 166.52 330.794C167.139 330.794 167.65 330.65 168.051 330.363C168.456 330.076 168.659 329.712 168.659 329.27C168.659 328.887 168.516 328.575 168.229 328.333C167.941 328.087 167.479 327.886 166.841 327.731L165.562 327.424C164.656 327.205 163.986 326.879 163.553 326.446C163.124 326.013 162.91 325.453 162.91 324.765C162.91 323.917 163.243 323.227 163.908 322.693C164.578 322.16 165.442 321.894 166.499 321.894C167.538 321.894 168.386 322.16 169.042 322.693C169.698 323.222 170.038 323.912 170.061 324.765H168.57C168.525 324.277 168.313 323.892 167.935 323.609C167.561 323.327 167.076 323.186 166.479 323.186C165.886 323.186 165.403 323.322 165.029 323.596C164.66 323.869 164.476 324.225 164.476 324.662C164.476 325.008 164.615 325.293 164.893 325.517C165.171 325.735 165.629 325.924 166.267 326.084L167.354 326.351C168.365 326.588 169.094 326.923 169.541 327.355C169.992 327.784 170.218 328.36 170.218 329.085C170.218 330.006 169.876 330.737 169.192 331.279C168.509 331.817 167.581 332.086 166.41 332.086C165.312 332.086 164.421 331.824 163.737 331.3C163.058 330.771 162.696 330.062 162.65 329.174Z" fill="#4274FB"/>
<path d="M171.845 323.028H173.328V324.73H174.695V325.899H173.328V329.864C173.328 330.174 173.399 330.402 173.54 330.548C173.681 330.694 173.902 330.767 174.203 330.767C174.422 330.767 174.584 330.755 174.688 330.732V331.901C174.506 331.947 174.233 331.97 173.868 331.97C173.144 331.97 172.624 331.822 172.31 331.525C172 331.225 171.845 330.726 171.845 330.028V325.899H170.799V324.73H171.845V323.028Z" fill="#4274FB"/>
<path d="M178.318 330.876C178.838 330.876 179.273 330.719 179.624 330.404C179.979 330.085 180.157 329.693 180.157 329.229V328.661L178.387 328.771C177.945 328.802 177.603 328.912 177.361 329.099C177.124 329.281 177.006 329.527 177.006 329.837C177.006 330.151 177.124 330.404 177.361 330.596C177.603 330.783 177.922 330.876 178.318 330.876ZM177.908 332.045C177.202 332.045 176.625 331.844 176.179 331.443C175.737 331.042 175.516 330.521 175.516 329.878C175.516 329.249 175.748 328.75 176.213 328.381C176.678 328.007 177.336 327.798 178.188 327.752L180.157 327.636V327.082C180.157 326.681 180.03 326.369 179.774 326.146C179.519 325.918 179.166 325.804 178.715 325.804C178.296 325.804 177.954 325.897 177.689 326.084C177.43 326.271 177.266 326.528 177.197 326.856H175.803C175.844 326.191 176.131 325.649 176.664 325.229C177.197 324.81 177.899 324.601 178.77 324.601C179.64 324.601 180.333 324.815 180.848 325.243C181.367 325.672 181.627 326.246 181.627 326.966V331.922H180.212V330.739H180.178C179.973 331.136 179.66 331.452 179.241 331.689C178.826 331.926 178.382 332.045 177.908 332.045Z" fill="#4274FB"/>
<path d="M183.062 331.922V324.73H184.471V325.954H184.505C184.623 325.535 184.835 325.207 185.141 324.97C185.446 324.733 185.811 324.614 186.234 324.614C186.376 324.614 186.544 324.632 186.74 324.669V326.043C186.608 325.988 186.387 325.961 186.077 325.961C185.603 325.961 185.227 326.109 184.949 326.405C184.676 326.701 184.539 327.105 184.539 327.615V331.922H183.062Z" fill="#4274FB"/>
<path d="M188.087 323.028H189.57V324.73H190.938V325.899H189.57V329.864C189.57 330.174 189.641 330.402 189.782 330.548C189.924 330.694 190.145 330.767 190.445 330.767C190.664 330.767 190.826 330.755 190.931 330.732V331.901C190.748 331.947 190.475 331.97 190.11 331.97C189.386 331.97 188.866 331.822 188.552 331.525C188.242 331.225 188.087 330.726 188.087 330.028V325.899H187.041V324.73H188.087V323.028Z" fill="#4274FB"/>
<path d="M196.235 326.31C195.912 325.963 195.495 325.79 194.984 325.79C194.474 325.79 194.05 325.965 193.713 326.316C193.376 326.663 193.189 327.112 193.152 327.663H196.748C196.73 327.107 196.559 326.656 196.235 326.31ZM196.741 329.81H198.143C198.038 330.47 197.701 331.01 197.131 331.43C196.561 331.849 195.866 332.059 195.046 332.059C193.993 332.059 193.164 331.728 192.558 331.067C191.956 330.402 191.655 329.5 191.655 328.36C191.655 327.23 191.956 326.321 192.558 325.633C193.164 324.945 193.973 324.601 194.984 324.601C195.978 324.601 196.766 324.926 197.35 325.578C197.933 326.225 198.225 327.096 198.225 328.189V328.695H193.146V328.784C193.146 329.413 193.321 329.917 193.672 330.295C194.023 330.673 194.492 330.862 195.08 330.862C195.495 330.862 195.85 330.767 196.146 330.575C196.443 330.384 196.641 330.129 196.741 329.81Z" fill="#4274FB"/>
<path d="M202.073 332.045C201.162 332.045 200.43 331.708 199.879 331.033C199.327 330.359 199.052 329.456 199.052 328.326C199.052 327.196 199.325 326.296 199.872 325.626C200.424 324.951 201.153 324.614 202.06 324.614C202.565 324.614 203.017 324.733 203.413 324.97C203.81 325.202 204.11 325.521 204.315 325.927H204.343V322.058H205.826V331.922H204.391V330.698H204.363C204.149 331.118 203.841 331.448 203.44 331.689C203.044 331.926 202.588 332.045 202.073 332.045ZM202.463 325.858C201.88 325.858 201.417 326.082 201.075 326.528C200.733 326.97 200.562 327.57 200.562 328.326C200.562 329.087 200.733 329.689 201.075 330.131C201.417 330.573 201.88 330.794 202.463 330.794C203.033 330.794 203.491 330.571 203.837 330.124C204.183 329.673 204.356 329.074 204.356 328.326C204.356 327.583 204.183 326.986 203.837 326.535C203.491 326.084 203.033 325.858 202.463 325.858Z" fill="#4274FB"/>
<rect x="111" y="313.894" width="121.826" height="26.1924" rx="4" stroke="#D0D0D0"/>
<defs>
<clipPath id="clip0">
<rect width="246" height="246" fill="white" transform="translate(49 49.8936)"/>
</clipPath>
</defs>
</svg>
