<svg width="209" height="190" viewBox="0 0 209 190" fill="none" xmlns="http://www.w3.org/2000/svg">
<path d="M86 162.245C109.897 167.206 134.552 158.212 149.538 139.068C164.525 119.924 167.225 93.972 156.498 72.1874C145.771 50.4028 123.489 36.5898 99.0757 36.5898" stroke="#4274FB" stroke-width="30"/>
<path d="M37.5258 92.5898C33.3105 125.339 54.864 155.835 87 162.59" stroke="#4274FB" stroke-width="30"/>
<path d="M99.5 36.5C67.5689 36.5 41.5999 61.9724 37.5 94" stroke="#EF5DA8" stroke-width="30"/>
<g filter="url(#filter0_d)">
<path fill-rule="evenodd" clip-rule="evenodd" d="M170.91 132.769C182.558 132.769 192 123.528 192 112.128C192 100.729 182.558 91.4873 170.91 91.4873C159.263 91.4873 149.82 100.729 149.82 112.128C149.82 123.528 159.263 132.769 170.91 132.769Z" fill="white"/>
</g>
<g filter="url(#filter1_d)">
<path fill-rule="evenodd" clip-rule="evenodd" d="M38.0897 58.2821C49.7373 58.2821 59.1795 49.0407 59.1795 37.641C59.1795 26.2413 49.7373 17 38.0897 17C26.4422 17 17 26.2413 17 37.641C17 49.0407 26.4422 58.2821 38.0897 58.2821Z" fill="white"/>
</g>
<path d="M162.094 116.808C161.374 116.808 160.731 116.639 160.166 116.302C159.605 115.965 159.159 115.479 158.826 114.846C158.357 114.03 158.122 113.009 158.122 111.783C158.122 110.143 158.48 108.858 159.195 107.928C159.911 106.998 160.895 106.533 162.148 106.533C163.051 106.533 163.823 106.78 164.466 107.272C165.108 107.759 165.503 108.402 165.648 109.199H163.898C163.785 108.826 163.568 108.527 163.249 108.304C162.93 108.081 162.559 107.969 162.135 107.969C161.396 107.969 160.822 108.297 160.412 108.953C160.002 109.61 159.799 110.53 159.804 111.715H159.838C160.048 111.227 160.392 110.838 160.87 110.546C161.349 110.254 161.896 110.109 162.511 110.109C163.45 110.109 164.229 110.419 164.849 111.038C165.468 111.654 165.778 112.428 165.778 113.363C165.778 114.365 165.432 115.19 164.739 115.837C164.047 116.484 163.165 116.808 162.094 116.808ZM162.08 115.365C162.627 115.365 163.09 115.176 163.468 114.798C163.851 114.42 164.042 113.96 164.042 113.417C164.042 112.861 163.857 112.401 163.488 112.036C163.124 111.672 162.659 111.49 162.094 111.49C161.529 111.49 161.057 111.672 160.679 112.036C160.305 112.396 160.118 112.85 160.118 113.397C160.118 113.948 160.307 114.415 160.686 114.798C161.064 115.176 161.529 115.365 162.08 115.365Z" fill="#333333"/>
<path d="M170.871 116.808C170.151 116.808 169.508 116.639 168.943 116.302C168.383 115.965 167.936 115.479 167.604 114.846C167.134 114.03 166.899 113.009 166.899 111.783C166.899 110.143 167.257 108.858 167.973 107.928C168.688 106.998 169.673 106.533 170.926 106.533C171.828 106.533 172.601 106.78 173.243 107.272C173.886 107.759 174.28 108.402 174.426 109.199H172.676C172.562 108.826 172.345 108.527 172.026 108.304C171.707 108.081 171.336 107.969 170.912 107.969C170.174 107.969 169.6 108.297 169.189 108.953C168.779 109.61 168.576 110.53 168.581 111.715H168.615C168.825 111.227 169.169 110.838 169.647 110.546C170.126 110.254 170.673 110.109 171.288 110.109C172.227 110.109 173.006 110.419 173.626 111.038C174.246 111.654 174.556 112.428 174.556 113.363C174.556 114.365 174.209 115.19 173.517 115.837C172.824 116.484 171.942 116.808 170.871 116.808ZM170.857 115.365C171.404 115.365 171.867 115.176 172.245 114.798C172.628 114.42 172.819 113.96 172.819 113.417C172.819 112.861 172.635 112.401 172.266 112.036C171.901 111.672 171.436 111.49 170.871 111.49C170.306 111.49 169.834 111.672 169.456 112.036C169.082 112.396 168.896 112.85 168.896 113.397C168.896 113.948 169.085 114.415 169.463 114.798C169.841 115.176 170.306 115.365 170.857 115.365Z" fill="#333333"/>
<path d="M179.184 107.258C179.58 107.709 179.778 108.32 179.778 109.09C179.778 109.86 179.58 110.473 179.184 110.929C178.787 111.385 178.256 111.613 177.591 111.613C176.925 111.613 176.395 111.385 175.998 110.929C175.606 110.473 175.41 109.86 175.41 109.09C175.41 108.32 175.606 107.709 175.998 107.258C176.395 106.802 176.925 106.574 177.591 106.574C178.256 106.574 178.787 106.802 179.184 107.258ZM177.591 110.539C177.846 110.539 178.044 110.412 178.186 110.156C178.331 109.897 178.404 109.541 178.404 109.09C178.404 108.634 178.331 108.279 178.186 108.024C178.044 107.764 177.846 107.634 177.591 107.634C177.34 107.634 177.142 107.764 176.996 108.024C176.855 108.279 176.784 108.634 176.784 109.09C176.784 109.541 176.855 109.897 176.996 110.156C177.142 110.412 177.34 110.539 177.591 110.539ZM177.728 116.603H176.237L183.449 106.739H184.926L177.728 116.603ZM185.165 112.371C185.562 112.827 185.76 113.44 185.76 114.21C185.76 114.98 185.562 115.593 185.165 116.049C184.769 116.5 184.238 116.726 183.572 116.726C182.907 116.726 182.376 116.5 181.979 116.049C181.588 115.593 181.392 114.98 181.392 114.21C181.392 113.44 181.588 112.827 181.979 112.371C182.376 111.916 182.907 111.688 183.572 111.688C184.238 111.688 184.769 111.916 185.165 112.371ZM182.978 115.27C183.123 115.53 183.322 115.659 183.572 115.659C183.823 115.659 184.021 115.53 184.167 115.27C184.313 115.01 184.386 114.655 184.386 114.203C184.386 113.752 184.313 113.397 184.167 113.137C184.021 112.877 183.823 112.747 183.572 112.747C183.322 112.747 183.123 112.877 182.978 113.137C182.836 113.397 182.766 113.752 182.766 114.203C182.766 114.655 182.836 115.01 182.978 115.27Z" fill="#333333"/>
<path d="M27.7422 37.72V36.3938H28.9316C29.4375 36.3938 29.8477 36.2548 30.1621 35.9768C30.4766 35.6943 30.6338 35.3319 30.6338 34.8899C30.6338 34.4524 30.4834 34.1038 30.1826 33.844C29.8864 33.5842 29.4671 33.4543 28.9248 33.4543C28.4189 33.4543 28.0065 33.5933 27.6875 33.8713C27.3685 34.1448 27.1908 34.5116 27.1543 34.9719H25.5137C25.5638 34.0833 25.9033 33.3746 26.5322 32.8459C27.1657 32.3173 27.9906 32.053 29.0068 32.053C29.9821 32.053 30.7796 32.2945 31.3994 32.7776C32.0192 33.2607 32.3291 33.885 32.3291 34.6506C32.3291 35.2568 32.1423 35.7694 31.7686 36.1887C31.3994 36.6034 30.9072 36.8632 30.292 36.968V37.009C31.0348 37.0637 31.625 37.3053 32.0625 37.7336C32.5046 38.1575 32.7256 38.7112 32.7256 39.3948C32.7256 40.2607 32.3724 40.9648 31.666 41.5071C30.9642 42.0448 30.071 42.3137 28.9863 42.3137C27.9108 42.3137 27.0426 42.0448 26.3818 41.5071C25.721 40.9648 25.3678 40.2515 25.3223 39.3674H27.0039C27.0449 39.8232 27.2432 40.1877 27.5986 40.4612C27.9541 40.7346 28.4212 40.8713 29 40.8713C29.5697 40.8713 30.0345 40.7278 30.3945 40.4407C30.7546 40.1536 30.9346 39.7821 30.9346 39.3264C30.9346 38.8297 30.7568 38.4377 30.4014 38.1506C30.0505 37.8635 29.5697 37.72 28.959 37.72H27.7422Z" fill="#333333"/>
<path d="M38.8027 42.1155V40.2493H33.8809V38.7317C34.6921 37.2004 36.057 35.0403 37.9756 32.2512H40.4844V38.8069H41.8105V40.2493H40.4844V42.1155H38.8027ZM35.4805 38.8V38.8479H38.8301V33.5569H38.8027C37.9688 34.7646 37.3011 35.7626 36.7998 36.551C36.2985 37.3394 35.8587 38.0891 35.4805 38.8Z" fill="#333333"/>
<path d="M46.3291 32.7708C46.7256 33.2219 46.9238 33.8326 46.9238 34.6028C46.9238 35.373 46.7256 35.9859 46.3291 36.4417C45.9326 36.8974 45.4017 37.1252 44.7363 37.1252C44.071 37.1252 43.54 36.8974 43.1436 36.4417C42.7516 35.9859 42.5557 35.373 42.5557 34.6028C42.5557 33.8326 42.7516 33.2219 43.1436 32.7708C43.54 32.315 44.071 32.0872 44.7363 32.0872C45.4017 32.0872 45.9326 32.315 46.3291 32.7708ZM44.7363 36.052C44.9915 36.052 45.1898 35.9244 45.3311 35.6692C45.4769 35.4094 45.5498 35.054 45.5498 34.6028C45.5498 34.1471 45.4769 33.7916 45.3311 33.5364C45.1898 33.2766 44.9915 33.1467 44.7363 33.1467C44.4857 33.1467 44.2874 33.2766 44.1416 33.5364C44.0003 33.7916 43.9297 34.1471 43.9297 34.6028C43.9297 35.054 44.0003 35.4094 44.1416 35.6692C44.2874 35.9244 44.4857 36.052 44.7363 36.052ZM44.873 42.1155H43.3828L50.5947 32.2512H52.0713L44.873 42.1155ZM52.3105 37.884C52.707 38.3398 52.9053 38.9527 52.9053 39.7229C52.9053 40.4931 52.707 41.106 52.3105 41.5618C51.9141 42.0129 51.3831 42.2385 50.7178 42.2385C50.0524 42.2385 49.5215 42.0129 49.125 41.5618C48.7331 41.106 48.5371 40.4931 48.5371 39.7229C48.5371 38.9527 48.7331 38.3398 49.125 37.884C49.5215 37.4283 50.0524 37.2004 50.7178 37.2004C51.3831 37.2004 51.9141 37.4283 52.3105 37.884ZM50.123 40.7825C50.2689 41.0422 50.4671 41.1721 50.7178 41.1721C50.9684 41.1721 51.1667 41.0422 51.3125 40.7825C51.4583 40.5227 51.5312 40.1672 51.5312 39.7161C51.5312 39.2649 51.4583 38.9094 51.3125 38.6497C51.1667 38.3899 50.9684 38.26 50.7178 38.26C50.4671 38.26 50.2689 38.3899 50.123 38.6497C49.9818 38.9094 49.9111 39.2649 49.9111 39.7161C49.9111 40.1672 49.9818 40.5227 50.123 40.7825Z" fill="#333333"/>
<defs>
<filter id="filter0_d" x="132.82" y="74.4873" width="76.1795" height="75.2821" filterUnits="userSpaceOnUse" color-interpolation-filters="sRGB">
<feFlood flood-opacity="0" result="BackgroundImageFix"/>
<feColorMatrix in="SourceAlpha" type="matrix" values="0 0 0 0 0 0 0 0 0 0 0 0 0 0 0 0 0 0 127 0" result="hardAlpha"/>
<feOffset/>
<feGaussianBlur stdDeviation="8.5"/>
<feColorMatrix type="matrix" values="0 0 0 0 0 0 0 0 0 0 0 0 0 0 0 0 0 0 0.163352 0"/>
<feBlend mode="normal" in2="BackgroundImageFix" result="effect1_dropShadow"/>
<feBlend mode="normal" in="SourceGraphic" in2="effect1_dropShadow" result="shape"/>
</filter>
<filter id="filter1_d" x="0" y="0" width="76.1795" height="75.2821" filterUnits="userSpaceOnUse" color-interpolation-filters="sRGB">
<feFlood flood-opacity="0" result="BackgroundImageFix"/>
<feColorMatrix in="SourceAlpha" type="matrix" values="0 0 0 0 0 0 0 0 0 0 0 0 0 0 0 0 0 0 127 0" result="hardAlpha"/>
<feOffset/>
<feGaussianBlur stdDeviation="8.5"/>
<feColorMatrix type="matrix" values="0 0 0 0 0 0 0 0 0 0 0 0 0 0 0 0 0 0 0.163352 0"/>
<feBlend mode="normal" in2="BackgroundImageFix" result="effect1_dropShadow"/>
<feBlend mode="normal" in="SourceGraphic" in2="effect1_dropShadow" result="shape"/>
</filter>
</defs>
</svg>
